G75*
G70*
%OFA0B0*%
%FSLAX24Y24*%
%IPPOS*%
%LPD*%
%AMOC8*
5,1,8,0,0,1.08239X$1,22.5*
%
%ADD10C,0.0000*%
%ADD11C,0.0030*%
%ADD12C,0.0080*%
%ADD13C,0.0100*%
%ADD14C,0.0010*%
%ADD15C,0.0060*%
%ADD16C,0.0040*%
%ADD17C,0.0050*%
%ADD18R,0.0070X0.0010*%
%ADD19R,0.0100X0.0010*%
%ADD20R,0.0080X0.0010*%
%ADD21R,0.0090X0.0010*%
%ADD22R,0.0020X0.0010*%
%ADD23R,0.0120X0.0010*%
%ADD24R,0.0110X0.0010*%
%ADD25R,0.0010X0.0010*%
%ADD26R,0.0130X0.0010*%
%ADD27R,0.0040X0.0010*%
%ADD28R,0.0150X0.0010*%
%ADD29R,0.0160X0.0010*%
%ADD30R,0.0140X0.0010*%
%ADD31R,0.0060X0.0010*%
%ADD32R,0.0170X0.0010*%
%ADD33R,0.0050X0.0010*%
%ADD34R,0.0180X0.0010*%
%ADD35R,0.0190X0.0010*%
%ADD36R,0.0200X0.0010*%
%ADD37R,0.0240X0.0010*%
%ADD38R,0.0220X0.0010*%
%ADD39R,0.0230X0.0010*%
%ADD40R,0.0250X0.0010*%
%ADD41R,0.0210X0.0010*%
%ADD42R,0.0260X0.0010*%
%ADD43R,0.0030X0.0010*%
%ADD44R,0.0270X0.0010*%
%ADD45R,0.0280X0.0010*%
%ADD46R,0.0290X0.0010*%
%ADD47R,0.0300X0.0010*%
%ADD48R,0.0320X0.0010*%
D10*
X000180Y000416D02*
X000180Y010496D01*
X016180Y010496D01*
X016180Y000416D01*
X000180Y000416D01*
X002580Y001536D02*
X002580Y002336D01*
X002180Y001936D02*
X002980Y001936D01*
X003249Y002330D02*
X003251Y002357D01*
X003257Y002384D01*
X003266Y002410D01*
X003279Y002434D01*
X003295Y002457D01*
X003314Y002476D01*
X003336Y002493D01*
X003360Y002507D01*
X003385Y002517D01*
X003412Y002524D01*
X003439Y002527D01*
X003467Y002526D01*
X003494Y002521D01*
X003520Y002513D01*
X003544Y002501D01*
X003567Y002485D01*
X003588Y002467D01*
X003605Y002446D01*
X003620Y002422D01*
X003631Y002397D01*
X003639Y002371D01*
X003643Y002344D01*
X003643Y002316D01*
X003639Y002289D01*
X003631Y002263D01*
X003620Y002238D01*
X003605Y002214D01*
X003588Y002193D01*
X003567Y002175D01*
X003545Y002159D01*
X003520Y002147D01*
X003494Y002139D01*
X003467Y002134D01*
X003439Y002133D01*
X003412Y002136D01*
X003385Y002143D01*
X003360Y002153D01*
X003336Y002167D01*
X003314Y002184D01*
X003295Y002203D01*
X003279Y002226D01*
X003266Y002250D01*
X003257Y002276D01*
X003251Y002303D01*
X003249Y002330D01*
X001517Y002330D02*
X001519Y002357D01*
X001525Y002384D01*
X001534Y002410D01*
X001547Y002434D01*
X001563Y002457D01*
X001582Y002476D01*
X001604Y002493D01*
X001628Y002507D01*
X001653Y002517D01*
X001680Y002524D01*
X001707Y002527D01*
X001735Y002526D01*
X001762Y002521D01*
X001788Y002513D01*
X001812Y002501D01*
X001835Y002485D01*
X001856Y002467D01*
X001873Y002446D01*
X001888Y002422D01*
X001899Y002397D01*
X001907Y002371D01*
X001911Y002344D01*
X001911Y002316D01*
X001907Y002289D01*
X001899Y002263D01*
X001888Y002238D01*
X001873Y002214D01*
X001856Y002193D01*
X001835Y002175D01*
X001813Y002159D01*
X001788Y002147D01*
X001762Y002139D01*
X001735Y002134D01*
X001707Y002133D01*
X001680Y002136D01*
X001653Y002143D01*
X001628Y002153D01*
X001604Y002167D01*
X001582Y002184D01*
X001563Y002203D01*
X001547Y002226D01*
X001534Y002250D01*
X001525Y002276D01*
X001519Y002303D01*
X001517Y002330D01*
X005240Y001616D02*
X005960Y001616D01*
X005600Y001256D02*
X005600Y001976D01*
X006463Y002456D02*
X007217Y002456D01*
X007743Y002456D02*
X008497Y002456D01*
X008120Y002079D02*
X008120Y002833D01*
X006840Y002833D02*
X006840Y002079D01*
X008390Y001221D02*
X008390Y000431D01*
X007995Y000826D02*
X008785Y000826D01*
X009880Y002216D02*
X009880Y003016D01*
X009480Y002616D02*
X010280Y002616D01*
X011373Y002466D02*
X012127Y002466D01*
X011750Y002089D02*
X011750Y002843D01*
X006317Y006036D02*
X005563Y006036D01*
X005940Y005659D02*
X005940Y006413D01*
X005940Y006779D02*
X005940Y007533D01*
X005960Y007899D02*
X005960Y008653D01*
X006020Y009076D02*
X006020Y009876D01*
X005620Y009476D02*
X006420Y009476D01*
X006337Y008276D02*
X005583Y008276D01*
X005563Y007156D02*
X006317Y007156D01*
X003785Y008131D02*
X002985Y008131D01*
X003385Y007731D02*
X003385Y008531D01*
X001500Y007036D02*
X001500Y006236D01*
X001100Y006636D02*
X001900Y006636D01*
X001220Y005656D02*
X001220Y004936D01*
X000860Y005296D02*
X001580Y005296D01*
X010180Y006976D02*
X010980Y006976D01*
X010580Y006576D02*
X010580Y007376D01*
X014740Y009116D02*
X015460Y009116D01*
X015100Y008756D02*
X015100Y009476D01*
D11*
X014405Y009538D02*
X014405Y009353D01*
X014282Y009414D02*
X014220Y009353D01*
X014158Y009414D01*
X014158Y009600D01*
X014282Y009538D02*
X014282Y009414D01*
X014282Y009538D02*
X014343Y009600D01*
X014405Y009538D01*
X014158Y009231D02*
X014158Y009169D01*
X014282Y009046D01*
X014405Y009046D02*
X014158Y009046D01*
X014220Y008924D02*
X014158Y008863D01*
X014158Y008739D01*
X014220Y008677D01*
X014343Y008677D01*
X014405Y008739D01*
X014405Y008863D01*
X014343Y008924D01*
X014220Y008924D01*
X014158Y008556D02*
X014158Y008371D01*
X014220Y008309D01*
X014282Y008371D01*
X014282Y008494D01*
X014343Y008556D01*
X014405Y008494D01*
X014405Y008309D01*
X014405Y008188D02*
X014220Y008188D01*
X014158Y008126D01*
X014158Y007941D01*
X014405Y007941D01*
X014282Y007819D02*
X014282Y007573D01*
X014343Y007573D02*
X014220Y007573D01*
X014158Y007634D01*
X014158Y007758D01*
X014220Y007819D01*
X014282Y007819D01*
X014405Y007758D02*
X014405Y007634D01*
X014343Y007573D01*
X014343Y007451D02*
X014405Y007389D01*
X014405Y007266D01*
X014343Y007204D01*
X014220Y007266D02*
X014220Y007389D01*
X014282Y007451D01*
X014343Y007451D01*
X014220Y007266D02*
X014158Y007204D01*
X014096Y007204D01*
X014035Y007266D01*
X014035Y007389D01*
X014096Y007451D01*
X012397Y007876D02*
X012150Y007876D01*
X012335Y008061D01*
X012335Y007691D01*
X012028Y007691D02*
X012028Y007938D01*
X011782Y007938D02*
X011782Y007753D01*
X011843Y007691D01*
X012028Y007691D01*
X011660Y007691D02*
X011413Y007691D01*
X011660Y007938D01*
X011660Y008000D01*
X011598Y008061D01*
X011475Y008061D01*
X011413Y008000D01*
X011292Y008000D02*
X011292Y007938D01*
X011230Y007876D01*
X011292Y007814D01*
X011292Y007753D01*
X011230Y007691D01*
X011107Y007691D01*
X011045Y007753D01*
X010923Y007814D02*
X010738Y007814D01*
X010677Y007753D01*
X010738Y007691D01*
X010923Y007691D01*
X010923Y007876D01*
X010862Y007938D01*
X010738Y007938D01*
X010555Y007938D02*
X010370Y007938D01*
X010308Y007876D01*
X010308Y007753D01*
X010370Y007691D01*
X010555Y007691D01*
X010555Y007629D02*
X010555Y007938D01*
X010187Y007876D02*
X010187Y007814D01*
X009940Y007814D01*
X009940Y007753D02*
X009940Y007876D01*
X010002Y007938D01*
X010125Y007938D01*
X010187Y007876D01*
X010125Y007691D02*
X010002Y007691D01*
X009940Y007753D01*
X009819Y007691D02*
X009819Y008061D01*
X009695Y007938D01*
X009572Y008061D01*
X009572Y007691D01*
X009327Y007691D02*
X009327Y008061D01*
X009450Y008061D02*
X009203Y008061D01*
X009082Y007938D02*
X009082Y007691D01*
X009082Y007876D02*
X008835Y007876D01*
X008835Y007938D02*
X008835Y007691D01*
X008835Y007938D02*
X008958Y008061D01*
X009082Y007938D01*
X010432Y007568D02*
X010493Y007568D01*
X010555Y007629D01*
X011045Y008000D02*
X011107Y008061D01*
X011230Y008061D01*
X011292Y008000D01*
X011230Y007876D02*
X011168Y007876D01*
X003952Y004631D02*
X003705Y004631D01*
X003583Y004631D02*
X003583Y004323D01*
X003522Y004261D01*
X003398Y004261D01*
X003337Y004323D01*
X003337Y004631D01*
X003215Y004570D02*
X003153Y004631D01*
X003030Y004631D01*
X002968Y004570D01*
X002968Y004323D01*
X003030Y004261D01*
X003153Y004261D01*
X003215Y004323D01*
X003215Y004570D01*
X002847Y004446D02*
X002600Y004446D01*
X002479Y004384D02*
X002479Y004323D01*
X002417Y004261D01*
X002232Y004261D01*
X002232Y004631D01*
X002417Y004631D01*
X002479Y004570D01*
X002479Y004508D01*
X002417Y004446D01*
X002232Y004446D01*
X002110Y004384D02*
X002110Y004323D01*
X002048Y004261D01*
X001925Y004261D01*
X001863Y004323D01*
X001742Y004323D02*
X001680Y004261D01*
X001557Y004261D01*
X001495Y004323D01*
X001495Y004631D01*
X001742Y004631D02*
X001742Y004323D01*
X001925Y004446D02*
X002048Y004446D01*
X002110Y004384D01*
X002110Y004570D02*
X002048Y004631D01*
X001925Y004631D01*
X001863Y004570D01*
X001863Y004508D01*
X001925Y004446D01*
X002417Y004446D02*
X002479Y004384D01*
X003828Y004261D02*
X003828Y004631D01*
X005172Y000981D02*
X005172Y000611D01*
X005419Y000611D01*
X005540Y000611D02*
X005787Y000611D01*
X005908Y000611D02*
X006094Y000611D01*
X006155Y000673D01*
X006155Y000920D01*
X006094Y000981D01*
X005908Y000981D01*
X005908Y000611D01*
X005663Y000796D02*
X005540Y000796D01*
X005540Y000981D02*
X005540Y000611D01*
X005540Y000981D02*
X005787Y000981D01*
X006277Y000920D02*
X006277Y000858D01*
X006338Y000796D01*
X006462Y000796D01*
X006524Y000734D01*
X006524Y000673D01*
X006462Y000611D01*
X006338Y000611D01*
X006277Y000673D01*
X006277Y000920D02*
X006338Y000981D01*
X006462Y000981D01*
X006524Y000920D01*
D12*
X006100Y001366D02*
X006100Y001866D01*
X005850Y002116D01*
X006100Y002366D01*
X006100Y002866D01*
X005850Y003116D01*
X006100Y003366D01*
X006100Y003866D01*
X005850Y004116D01*
X006100Y004366D01*
X006100Y004866D01*
X005850Y005116D01*
X005350Y005116D01*
X005100Y004866D01*
X005100Y004366D01*
X005350Y004116D01*
X005100Y003866D01*
X005100Y003366D01*
X005350Y003116D01*
X005100Y002866D01*
X005100Y002366D01*
X005350Y002116D01*
X005100Y001866D01*
X005100Y001366D01*
X005350Y001116D01*
X005850Y001116D01*
X006100Y001366D01*
X008896Y002498D02*
X008896Y002734D01*
X009644Y003246D02*
X010116Y003246D01*
X010864Y002734D02*
X010864Y002498D01*
X010116Y001986D02*
X009644Y001986D01*
X008848Y005086D02*
X008690Y005244D01*
X008690Y008708D01*
X008848Y008866D01*
X012312Y008866D01*
X012470Y008708D01*
X012470Y005244D01*
X012312Y005086D01*
X008848Y005086D01*
X004720Y005046D02*
X004720Y005546D01*
X004470Y005796D01*
X003970Y005796D01*
X003720Y005546D01*
X003470Y005796D01*
X002970Y005796D01*
X002720Y005546D01*
X002470Y005796D01*
X001970Y005796D01*
X001720Y005546D01*
X001470Y005796D01*
X000970Y005796D01*
X000720Y005546D01*
X000720Y005046D01*
X000970Y004796D01*
X001470Y004796D01*
X001720Y005046D01*
X001970Y004796D01*
X002470Y004796D01*
X002720Y005046D01*
X002970Y004796D01*
X003470Y004796D01*
X003720Y005046D01*
X003970Y004796D01*
X004470Y004796D01*
X004720Y005046D01*
X002050Y006246D02*
X001940Y006136D01*
X001550Y006136D01*
X001160Y006136D01*
X001050Y006246D01*
X001550Y006236D02*
X001550Y006136D01*
X001550Y007036D02*
X001550Y007236D01*
X001550Y008036D02*
X001550Y008236D01*
X001550Y009036D02*
X001550Y009236D01*
X001050Y010026D02*
X001160Y010136D01*
X001550Y010136D01*
X001940Y010136D01*
X002050Y010026D01*
X001550Y010036D02*
X001550Y010136D01*
X005770Y009776D02*
X006270Y009776D01*
X006270Y009176D02*
X005770Y009176D01*
X014600Y009366D02*
X014600Y008866D01*
X014850Y008616D01*
X014600Y008366D01*
X014600Y007866D01*
X014850Y007616D01*
X014600Y007366D01*
X014600Y006866D01*
X014850Y006616D01*
X014600Y006366D01*
X014600Y005866D01*
X014850Y005616D01*
X014600Y005366D01*
X014600Y004866D01*
X014850Y004616D01*
X014600Y004366D01*
X014600Y003866D01*
X014850Y003616D01*
X014600Y003366D01*
X014600Y002866D01*
X014850Y002616D01*
X014600Y002366D01*
X014600Y001866D01*
X014850Y001616D01*
X015350Y001616D01*
X015600Y001866D01*
X015600Y002366D01*
X015350Y002616D01*
X015600Y002866D01*
X015600Y003366D01*
X015350Y003616D01*
X015600Y003866D01*
X015600Y004366D01*
X015350Y004616D01*
X015600Y004866D01*
X015600Y005366D01*
X015350Y005616D01*
X015600Y005866D01*
X015600Y006366D01*
X015350Y006616D01*
X015600Y006866D01*
X015600Y007366D01*
X015350Y007616D01*
X015600Y007866D01*
X015600Y008366D01*
X015350Y008616D01*
X015600Y008866D01*
X015600Y009366D01*
X015350Y009616D01*
X014850Y009616D01*
X014600Y009366D01*
D13*
X008894Y008551D02*
X008896Y008571D01*
X008901Y008591D01*
X008911Y008609D01*
X008923Y008626D01*
X008938Y008640D01*
X008956Y008650D01*
X008975Y008658D01*
X008995Y008662D01*
X009015Y008662D01*
X009035Y008658D01*
X009054Y008650D01*
X009072Y008640D01*
X009087Y008626D01*
X009099Y008609D01*
X009109Y008591D01*
X009114Y008571D01*
X009116Y008551D01*
X009114Y008531D01*
X009109Y008511D01*
X009099Y008493D01*
X009087Y008476D01*
X009072Y008462D01*
X009054Y008452D01*
X009035Y008444D01*
X009015Y008440D01*
X008995Y008440D01*
X008975Y008444D01*
X008956Y008452D01*
X008938Y008462D01*
X008923Y008476D01*
X008911Y008493D01*
X008901Y008511D01*
X008896Y008531D01*
X008894Y008551D01*
D14*
X006578Y008821D02*
X006478Y008821D01*
X006528Y008821D02*
X006528Y008971D01*
X006478Y008921D01*
X006430Y008971D02*
X006330Y008971D01*
X006330Y008821D01*
X006330Y008896D02*
X006380Y008896D01*
X006193Y007946D02*
X006143Y007946D01*
X006118Y007921D01*
X006118Y007896D01*
X006143Y007871D01*
X006218Y007871D01*
X006218Y007821D02*
X006218Y007921D01*
X006193Y007946D01*
X006070Y007921D02*
X006070Y007871D01*
X006045Y007846D01*
X005970Y007846D01*
X005970Y007796D02*
X005970Y007946D01*
X006045Y007946D01*
X006070Y007921D01*
X006020Y007846D02*
X006070Y007796D01*
X006118Y007821D02*
X006143Y007796D01*
X006193Y007796D01*
X006218Y007821D01*
X006173Y006826D02*
X006198Y006801D01*
X006098Y006701D01*
X006123Y006676D01*
X006173Y006676D01*
X006198Y006701D01*
X006198Y006801D01*
X006173Y006826D02*
X006123Y006826D01*
X006098Y006801D01*
X006098Y006701D01*
X006050Y006676D02*
X005950Y006676D01*
X005903Y006676D02*
X005853Y006726D01*
X005878Y006726D02*
X005803Y006726D01*
X005803Y006676D02*
X005803Y006826D01*
X005878Y006826D01*
X005903Y006801D01*
X005903Y006751D01*
X005878Y006726D01*
X005950Y006776D02*
X006000Y006826D01*
X006000Y006676D01*
X005975Y005706D02*
X005950Y005681D01*
X005950Y005581D01*
X005975Y005556D01*
X006025Y005556D01*
X006050Y005581D01*
X006098Y005631D02*
X006173Y005706D01*
X006173Y005556D01*
X006198Y005631D02*
X006098Y005631D01*
X006050Y005681D02*
X006025Y005706D01*
X005975Y005706D01*
X008475Y002714D02*
X008450Y002689D01*
X008450Y002639D01*
X008475Y002614D01*
X008475Y002566D02*
X008450Y002541D01*
X008450Y002491D01*
X008475Y002466D01*
X008575Y002466D01*
X008600Y002491D01*
X008600Y002541D01*
X008575Y002566D01*
X008600Y002614D02*
X008500Y002714D01*
X008475Y002714D01*
X008600Y002714D02*
X008600Y002614D01*
X010590Y001861D02*
X010590Y001836D01*
X010640Y001786D01*
X010640Y001711D01*
X010640Y001786D02*
X010690Y001836D01*
X010690Y001861D01*
X010738Y001811D02*
X010788Y001861D01*
X010788Y001711D01*
X010738Y001711D02*
X010838Y001711D01*
X012080Y002501D02*
X012105Y002476D01*
X012205Y002476D01*
X012230Y002501D01*
X012230Y002551D01*
X012205Y002576D01*
X012230Y002624D02*
X012230Y002724D01*
X012230Y002674D02*
X012080Y002674D01*
X012130Y002624D01*
X012105Y002576D02*
X012080Y002551D01*
X012080Y002501D01*
X006510Y002408D02*
X006510Y002308D01*
X006510Y002261D02*
X006460Y002211D01*
X006460Y002236D02*
X006460Y002161D01*
X006510Y002161D02*
X006360Y002161D01*
X006360Y002236D01*
X006385Y002261D01*
X006435Y002261D01*
X006460Y002236D01*
X006410Y002308D02*
X006360Y002358D01*
X006510Y002358D01*
D15*
X006604Y002338D02*
X006604Y002574D01*
X007076Y002574D02*
X007076Y002338D01*
X007884Y002338D02*
X007884Y002574D01*
X008356Y002574D02*
X008356Y002338D01*
X011514Y002348D02*
X011514Y002584D01*
X011986Y002584D02*
X011986Y002348D01*
X006058Y005800D02*
X005822Y005800D01*
X005822Y006272D02*
X006058Y006272D01*
X006058Y006920D02*
X005822Y006920D01*
X005822Y007392D02*
X006058Y007392D01*
X006078Y008040D02*
X005842Y008040D01*
X005842Y008512D02*
X006078Y008512D01*
X004385Y008381D02*
X004385Y008881D01*
X004135Y009131D01*
X004385Y009381D01*
X004385Y009881D01*
X004135Y010131D01*
X002635Y010131D01*
X002385Y009881D01*
X002385Y009381D01*
X002635Y009131D01*
X004135Y009131D01*
X004385Y008381D02*
X004135Y008131D01*
X002635Y008131D01*
X002385Y008381D01*
X002385Y008881D01*
X002635Y009131D01*
X002635Y008131D02*
X002385Y007881D01*
X002385Y007381D01*
X002635Y007131D01*
X004135Y007131D01*
X004385Y007381D01*
X004385Y007881D01*
X004135Y008131D01*
X004135Y007131D02*
X004385Y006881D01*
X004385Y006381D01*
X004135Y006131D01*
X002635Y006131D01*
X002385Y006381D01*
X002385Y006881D01*
X002635Y007131D01*
D16*
X000780Y007077D02*
X000780Y007307D01*
X000703Y007384D01*
X000627Y007384D01*
X000550Y007307D01*
X000550Y007077D01*
X000780Y007077D02*
X000320Y007077D01*
X000320Y007307D01*
X000396Y007384D01*
X000473Y007384D01*
X000550Y007307D01*
X000396Y007537D02*
X000703Y007537D01*
X000780Y007614D01*
X000780Y007767D01*
X000703Y007844D01*
X000780Y007998D02*
X000473Y007998D01*
X000320Y008151D01*
X000473Y008305D01*
X000780Y008305D01*
X000550Y008305D02*
X000550Y007998D01*
X000396Y007844D02*
X000320Y007767D01*
X000320Y007614D01*
X000396Y007537D01*
X000320Y006923D02*
X000320Y006616D01*
X000780Y006616D01*
X000780Y006923D01*
X000550Y006770D02*
X000550Y006616D01*
X000780Y006463D02*
X000320Y006463D01*
X000627Y006309D02*
X000780Y006463D01*
X000627Y006309D02*
X000780Y006156D01*
X000320Y006156D01*
X000320Y008458D02*
X000473Y008611D01*
X000320Y008765D01*
X000780Y008765D01*
X000780Y008458D02*
X000320Y008458D01*
D17*
X001045Y003747D02*
X004115Y003747D01*
X003840Y003747D02*
X003407Y003747D01*
X004115Y002763D02*
X004115Y001700D01*
X004115Y000125D02*
X001045Y000125D01*
X001045Y001700D02*
X001045Y002763D01*
X001320Y003747D02*
X001753Y003747D01*
D18*
X003670Y001116D03*
X003670Y001086D03*
X003670Y001076D03*
X008480Y000956D03*
X008490Y000946D03*
X008670Y000866D03*
X008880Y000956D03*
X008890Y000966D03*
X008640Y001096D03*
X008640Y001106D03*
X008650Y001116D03*
X008700Y001526D03*
X009850Y001276D03*
X010490Y001276D03*
X010480Y000996D03*
X010710Y000996D03*
X011080Y001266D03*
D19*
X010985Y001176D03*
X010985Y001166D03*
X010825Y001076D03*
X010685Y001116D03*
X010555Y001116D03*
X010555Y001106D03*
X010545Y001086D03*
X010545Y001076D03*
X010555Y001166D03*
X010555Y001176D03*
X010545Y001196D03*
X010365Y001186D03*
X010365Y001176D03*
X010365Y001096D03*
X010365Y001086D03*
X010225Y001096D03*
X010225Y001106D03*
X010215Y001126D03*
X010215Y001076D03*
X010055Y001066D03*
X009855Y000996D03*
X009775Y001066D03*
X009765Y001086D03*
X009775Y001206D03*
X009565Y001016D03*
X009565Y001006D03*
X009545Y000956D03*
X009535Y000946D03*
X009485Y001206D03*
X009475Y001226D03*
X009475Y001236D03*
X009465Y001256D03*
X009465Y001266D03*
X008915Y001016D03*
X008915Y001006D03*
X008675Y000876D03*
X008635Y001056D03*
X008465Y000986D03*
X008855Y001286D03*
X008695Y001496D03*
X010055Y001296D03*
X010055Y001286D03*
X010055Y001276D03*
X010055Y001266D03*
X010065Y001306D03*
X010165Y001386D03*
X011295Y001176D03*
X011305Y001186D03*
X011315Y001196D03*
X011315Y001206D03*
X011325Y001216D03*
X011335Y001226D03*
X011345Y001246D03*
X011355Y001256D03*
X011295Y001116D03*
X011295Y001106D03*
X011305Y001096D03*
X011315Y001086D03*
X011325Y001066D03*
X011335Y001056D03*
X011345Y001036D03*
D20*
X011075Y001256D03*
X010755Y001276D03*
X010665Y001086D03*
X009935Y001176D03*
X009935Y001186D03*
X009765Y001186D03*
X009645Y001216D03*
X009635Y001186D03*
X009635Y001176D03*
X009625Y001156D03*
X009625Y001146D03*
X009615Y001136D03*
X009615Y001126D03*
X009615Y001116D03*
X009515Y001116D03*
X009505Y001146D03*
X009475Y000876D03*
X008905Y000986D03*
X008895Y000976D03*
X008635Y001076D03*
X008635Y001086D03*
X008475Y000966D03*
X008855Y001296D03*
X008705Y001516D03*
X003665Y001106D03*
X003665Y001096D03*
D21*
X008470Y000976D03*
X008630Y001066D03*
X008910Y000996D03*
X009210Y001076D03*
X009210Y001086D03*
X009210Y001096D03*
X009210Y001106D03*
X009210Y001116D03*
X009210Y001126D03*
X009210Y001136D03*
X009210Y001146D03*
X009210Y001236D03*
X009210Y001246D03*
X009210Y001256D03*
X009210Y001266D03*
X009210Y001276D03*
X009210Y001286D03*
X009210Y001296D03*
X009210Y001306D03*
X009470Y001246D03*
X009480Y001216D03*
X009490Y001196D03*
X009490Y001186D03*
X009490Y001176D03*
X009500Y001166D03*
X009500Y001156D03*
X009510Y001136D03*
X009510Y001126D03*
X009630Y001166D03*
X009640Y001196D03*
X009640Y001206D03*
X009650Y001226D03*
X009650Y001236D03*
X009660Y001246D03*
X009660Y001256D03*
X009660Y001266D03*
X009770Y001196D03*
X009760Y001176D03*
X009760Y001106D03*
X009760Y001096D03*
X009770Y001076D03*
X009920Y001206D03*
X009930Y001196D03*
X010220Y001086D03*
X010360Y001106D03*
X010360Y001116D03*
X010360Y001126D03*
X010360Y001136D03*
X010360Y001146D03*
X010360Y001156D03*
X010360Y001166D03*
X010360Y001246D03*
X010360Y001256D03*
X010360Y001266D03*
X010550Y001186D03*
X010560Y001156D03*
X010560Y001146D03*
X010560Y001136D03*
X010560Y001126D03*
X010550Y001096D03*
X010670Y001096D03*
X010670Y001106D03*
X010670Y001076D03*
X010670Y001066D03*
X010830Y001086D03*
X010830Y001096D03*
X010830Y001106D03*
X010830Y001116D03*
X010830Y001186D03*
X010830Y001196D03*
X010820Y001206D03*
X010700Y001216D03*
X010830Y001016D03*
X010830Y001006D03*
X010980Y001006D03*
X010980Y001016D03*
X010980Y001026D03*
X010980Y001036D03*
X010980Y001046D03*
X010980Y001056D03*
X010980Y001066D03*
X010980Y001076D03*
X010980Y001086D03*
X010980Y001096D03*
X010980Y001106D03*
X010980Y001116D03*
X010980Y001126D03*
X010980Y001136D03*
X010980Y001146D03*
X010980Y001156D03*
X010980Y001256D03*
X010980Y001266D03*
X011190Y001266D03*
X011190Y001256D03*
X011190Y001246D03*
X011190Y001236D03*
X011190Y001226D03*
X011190Y001216D03*
X011190Y001206D03*
X011190Y001196D03*
X011190Y001186D03*
X011190Y001176D03*
X011190Y001166D03*
X011190Y001116D03*
X011190Y001106D03*
X011190Y001096D03*
X011190Y001086D03*
X011190Y001076D03*
X011190Y001066D03*
X011190Y001056D03*
X011190Y001046D03*
X011190Y001036D03*
X011190Y001026D03*
X011190Y001016D03*
X011190Y001006D03*
X011290Y001166D03*
X011190Y001276D03*
X011190Y001286D03*
X011190Y001296D03*
X011190Y001306D03*
X011190Y001316D03*
X011190Y001326D03*
X011190Y001336D03*
X011190Y001346D03*
X011190Y001356D03*
X011190Y001366D03*
X011190Y001376D03*
X011190Y001386D03*
X011190Y001396D03*
X010360Y001016D03*
X010360Y001006D03*
X010360Y000996D03*
X010360Y000986D03*
X010360Y000976D03*
X010360Y000966D03*
X010360Y000956D03*
X010360Y000946D03*
X010360Y000936D03*
X010360Y000926D03*
X010360Y000916D03*
X010360Y000906D03*
X010360Y000896D03*
X010360Y000886D03*
X010360Y000876D03*
X009560Y000986D03*
X009560Y000996D03*
X009550Y000976D03*
X009550Y000966D03*
X008700Y001506D03*
D22*
X008685Y001586D03*
X008845Y001326D03*
X008815Y000896D03*
X008795Y000886D03*
X008555Y000886D03*
X008535Y000896D03*
X009435Y000946D03*
X010015Y001096D03*
X010245Y001296D03*
X010665Y001196D03*
X011105Y001196D03*
X002265Y001076D03*
D23*
X008455Y001026D03*
X008455Y001016D03*
X008635Y001046D03*
X008675Y000886D03*
X008915Y001036D03*
X009485Y000896D03*
X009565Y001036D03*
X009565Y001046D03*
X010115Y000996D03*
X010205Y001136D03*
X010375Y001066D03*
X010995Y001196D03*
X008695Y001476D03*
D24*
X008700Y001486D03*
X008920Y001026D03*
X008460Y001006D03*
X008460Y000996D03*
X009480Y000886D03*
X009560Y001026D03*
X009790Y001216D03*
X009910Y001216D03*
X010060Y001256D03*
X010220Y001116D03*
X010370Y001076D03*
X010370Y001196D03*
X010490Y001266D03*
X010540Y001206D03*
X010530Y001066D03*
X010480Y001006D03*
X010710Y001006D03*
X010820Y001066D03*
X010820Y001176D03*
X010810Y001216D03*
X010990Y001186D03*
X011320Y001076D03*
X011340Y001046D03*
X011350Y001026D03*
X011360Y001016D03*
X011370Y001006D03*
X011340Y001236D03*
X011360Y001266D03*
D25*
X009950Y001076D03*
X008800Y000896D03*
X008750Y001066D03*
X008750Y001076D03*
X008550Y000896D03*
X008680Y001596D03*
X003970Y001226D03*
X003960Y001246D03*
X003910Y001326D03*
X003820Y001416D03*
X003810Y001426D03*
X003740Y001496D03*
X003630Y001506D03*
X003700Y001616D03*
X003640Y001316D03*
X003630Y001306D03*
X003710Y001226D03*
X003720Y001236D03*
X003760Y001276D03*
X003790Y001226D03*
X003750Y001136D03*
X003790Y001086D03*
X003840Y001126D03*
X003950Y000976D03*
X003940Y000966D03*
X003930Y000956D03*
X003890Y000926D03*
X003840Y000926D03*
X003810Y000896D03*
X003800Y000956D03*
X003640Y000906D03*
X003600Y000896D03*
X003520Y000926D03*
X003520Y000996D03*
X003460Y000966D03*
X003450Y000976D03*
X003440Y000986D03*
X003610Y001036D03*
X003620Y001076D03*
X003570Y001126D03*
X003580Y001136D03*
X003590Y001146D03*
X003620Y001166D03*
X003440Y001266D03*
X003460Y001286D03*
X003470Y001296D03*
X003120Y001296D03*
X003120Y001286D03*
X003120Y001276D03*
X003120Y001266D03*
X003120Y001256D03*
X003120Y001246D03*
X003120Y001306D03*
X003120Y001316D03*
X002960Y001256D03*
X003120Y001156D03*
X003120Y001146D03*
X003120Y001136D03*
X003120Y001126D03*
X003120Y001116D03*
X003120Y001106D03*
X003120Y001096D03*
X003120Y001086D03*
X002780Y000986D03*
X002750Y001066D03*
X002720Y001146D03*
X002690Y001226D03*
X002490Y001196D03*
X002490Y001286D03*
X002370Y001316D03*
X002260Y001316D03*
X002270Y001396D03*
X001970Y001176D03*
X001900Y001216D03*
X001870Y001166D03*
X001870Y001136D03*
X001890Y001086D03*
X001780Y001196D03*
X001800Y001246D03*
X001710Y001166D03*
X001620Y001186D03*
X001630Y001226D03*
X001670Y001286D03*
X001320Y001206D03*
X001310Y001286D03*
X001080Y001266D03*
X001100Y001066D03*
X002110Y001136D03*
X002210Y001096D03*
X002220Y001086D03*
X002320Y001086D03*
X002340Y001096D03*
X002440Y001016D03*
X002550Y001076D03*
X002650Y001066D03*
D26*
X008450Y001046D03*
X008450Y001036D03*
X008670Y000896D03*
X008920Y001046D03*
X008920Y001056D03*
X008690Y001466D03*
X009560Y001056D03*
X009490Y000906D03*
X009850Y001266D03*
X010070Y001246D03*
X010380Y001206D03*
X010710Y001016D03*
D27*
X010675Y001206D03*
X011095Y001276D03*
X010235Y001306D03*
X008855Y001316D03*
X008695Y001566D03*
X008745Y001046D03*
X008835Y000916D03*
X008825Y000906D03*
X008525Y000906D03*
X008515Y000916D03*
D28*
X008670Y000906D03*
X008460Y001096D03*
X008460Y001106D03*
X008460Y001116D03*
X008680Y001446D03*
X009560Y001076D03*
X009500Y000926D03*
X009860Y001006D03*
X010750Y001266D03*
D29*
X010495Y001246D03*
X010185Y001156D03*
X010095Y001226D03*
X009855Y001256D03*
X009565Y001096D03*
X009565Y001086D03*
X009505Y000936D03*
X008915Y001086D03*
X008675Y000916D03*
X008465Y001126D03*
X008465Y001136D03*
X008675Y001436D03*
D30*
X008685Y001456D03*
X008455Y001086D03*
X008455Y001076D03*
X008455Y001066D03*
X008455Y001056D03*
X008915Y001066D03*
X008915Y001076D03*
X009495Y000916D03*
X009565Y001066D03*
X010085Y001236D03*
X010195Y001146D03*
X010195Y001066D03*
X010485Y001016D03*
X010495Y001256D03*
D31*
X008855Y001306D03*
X008705Y001536D03*
X008875Y000946D03*
X008865Y000936D03*
X008505Y000926D03*
X008495Y000936D03*
X003665Y001126D03*
X003665Y001136D03*
D32*
X008470Y001146D03*
X008470Y001156D03*
X008480Y001166D03*
X008480Y001176D03*
X008490Y001196D03*
X008500Y001216D03*
X008670Y001426D03*
X008910Y001096D03*
X008670Y000926D03*
X009560Y001106D03*
X010110Y001216D03*
X010170Y001166D03*
D33*
X010030Y001076D03*
X008850Y000926D03*
X008660Y001126D03*
X008700Y001546D03*
X008700Y001556D03*
X003670Y001146D03*
X003670Y001066D03*
D34*
X008485Y001186D03*
X008495Y001206D03*
X008505Y001226D03*
X008515Y001236D03*
X008515Y001246D03*
X008525Y001256D03*
X008525Y001266D03*
X008535Y001276D03*
X008655Y001406D03*
X008665Y001416D03*
X008905Y001116D03*
X008905Y001106D03*
X008675Y000946D03*
X008675Y000936D03*
X010115Y001006D03*
X010155Y001176D03*
X010145Y001186D03*
X010165Y001376D03*
X010745Y001256D03*
X010785Y001166D03*
X011025Y001206D03*
X011025Y001216D03*
X011025Y001226D03*
X011025Y001236D03*
X011025Y001246D03*
X011235Y001146D03*
X011235Y001136D03*
D35*
X011240Y001126D03*
X011240Y001156D03*
X010750Y001246D03*
X010130Y001196D03*
X010120Y001206D03*
X009850Y001246D03*
X009860Y001016D03*
X008900Y001126D03*
X008670Y001036D03*
X008670Y001026D03*
X008670Y000966D03*
X008670Y000956D03*
D36*
X008675Y000976D03*
X008675Y000986D03*
X008675Y000996D03*
X008675Y001006D03*
X008675Y001016D03*
X008895Y001136D03*
X008645Y001396D03*
X009855Y001026D03*
X010155Y001366D03*
X010755Y001236D03*
X010775Y001156D03*
D37*
X010755Y001126D03*
X010755Y001036D03*
X010755Y001026D03*
X010125Y001036D03*
X010135Y001316D03*
X010135Y001326D03*
X009285Y001066D03*
X009285Y001056D03*
X009285Y001046D03*
X009285Y001036D03*
X009285Y001026D03*
X009285Y001016D03*
X009285Y001006D03*
X008865Y001166D03*
X008615Y001346D03*
X008605Y001336D03*
D38*
X008625Y001366D03*
X008875Y001156D03*
X008885Y001146D03*
X009275Y001156D03*
X009275Y001166D03*
X009275Y001176D03*
X009275Y001186D03*
X009275Y001196D03*
X009275Y001206D03*
X009275Y001216D03*
X009275Y001226D03*
X009845Y001056D03*
X009845Y001046D03*
X010115Y001016D03*
X010145Y001346D03*
X010765Y001146D03*
D39*
X010760Y001136D03*
X010120Y001026D03*
X010140Y001336D03*
X009280Y001336D03*
X009280Y001326D03*
X009280Y001316D03*
X009280Y001346D03*
X009280Y001356D03*
X009280Y001366D03*
X009280Y001376D03*
X008620Y001356D03*
D40*
X010130Y001046D03*
X010440Y001026D03*
X010750Y001046D03*
X010750Y001056D03*
D41*
X010760Y001226D03*
X010150Y001356D03*
X009850Y001236D03*
X009850Y001226D03*
X009850Y001036D03*
X008640Y001386D03*
X008630Y001376D03*
D42*
X008605Y001326D03*
X008605Y001316D03*
X008855Y001176D03*
X009845Y001166D03*
X009845Y001156D03*
X009845Y001146D03*
X009845Y001136D03*
X009845Y001126D03*
X009845Y001116D03*
X010135Y001056D03*
X010445Y001046D03*
X010445Y001036D03*
X010445Y001236D03*
D43*
X010020Y001086D03*
X009940Y001066D03*
X008750Y001056D03*
X008690Y001576D03*
X003670Y001056D03*
D44*
X008600Y001306D03*
X010450Y001226D03*
X010450Y001056D03*
D45*
X010455Y001216D03*
X008845Y001186D03*
X008835Y001196D03*
X008775Y001276D03*
D46*
X008820Y001216D03*
X008830Y001206D03*
X008600Y001296D03*
D47*
X008785Y001266D03*
X008785Y001256D03*
X008795Y001246D03*
X008805Y001236D03*
X008815Y001226D03*
D48*
X008605Y001286D03*
M02*
