G75*
G70*
%OFA0B0*%
%FSLAX24Y24*%
%IPPOS*%
%LPD*%
%AMOC8*
5,1,8,0,0,1.08239X$1,22.5*
%
%ADD10C,0.0000*%
%ADD11R,0.0591X0.0197*%
%ADD12R,0.0197X0.0591*%
%ADD13R,0.0748X0.0433*%
%ADD14R,0.0472X0.0315*%
%ADD15R,0.0315X0.0472*%
%ADD16C,0.0600*%
%ADD17R,0.0740X0.0740*%
%ADD18C,0.0740*%
%ADD19R,0.0394X0.0709*%
%ADD20OC8,0.0660*%
%ADD21R,0.0787X0.0945*%
%ADD22R,0.0197X0.0909*%
%ADD23C,0.0160*%
%ADD24R,0.0356X0.0356*%
%ADD25C,0.0400*%
%ADD26C,0.0320*%
D10*
X000180Y000416D02*
X000180Y010496D01*
X016180Y010496D01*
X016180Y000416D01*
X000180Y000416D01*
X001517Y002330D02*
X001519Y002357D01*
X001525Y002384D01*
X001534Y002410D01*
X001547Y002434D01*
X001563Y002457D01*
X001582Y002476D01*
X001604Y002493D01*
X001628Y002507D01*
X001653Y002517D01*
X001680Y002524D01*
X001707Y002527D01*
X001735Y002526D01*
X001762Y002521D01*
X001788Y002513D01*
X001812Y002501D01*
X001835Y002485D01*
X001856Y002467D01*
X001873Y002446D01*
X001888Y002422D01*
X001899Y002397D01*
X001907Y002371D01*
X001911Y002344D01*
X001911Y002316D01*
X001907Y002289D01*
X001899Y002263D01*
X001888Y002238D01*
X001873Y002214D01*
X001856Y002193D01*
X001835Y002175D01*
X001813Y002159D01*
X001788Y002147D01*
X001762Y002139D01*
X001735Y002134D01*
X001707Y002133D01*
X001680Y002136D01*
X001653Y002143D01*
X001628Y002153D01*
X001604Y002167D01*
X001582Y002184D01*
X001563Y002203D01*
X001547Y002226D01*
X001534Y002250D01*
X001525Y002276D01*
X001519Y002303D01*
X001517Y002330D01*
X003249Y002330D02*
X003251Y002357D01*
X003257Y002384D01*
X003266Y002410D01*
X003279Y002434D01*
X003295Y002457D01*
X003314Y002476D01*
X003336Y002493D01*
X003360Y002507D01*
X003385Y002517D01*
X003412Y002524D01*
X003439Y002527D01*
X003467Y002526D01*
X003494Y002521D01*
X003520Y002513D01*
X003544Y002501D01*
X003567Y002485D01*
X003588Y002467D01*
X003605Y002446D01*
X003620Y002422D01*
X003631Y002397D01*
X003639Y002371D01*
X003643Y002344D01*
X003643Y002316D01*
X003639Y002289D01*
X003631Y002263D01*
X003620Y002238D01*
X003605Y002214D01*
X003588Y002193D01*
X003567Y002175D01*
X003545Y002159D01*
X003520Y002147D01*
X003494Y002139D01*
X003467Y002134D01*
X003439Y002133D01*
X003412Y002136D01*
X003385Y002143D01*
X003360Y002153D01*
X003336Y002167D01*
X003314Y002184D01*
X003295Y002203D01*
X003279Y002226D01*
X003266Y002250D01*
X003257Y002276D01*
X003251Y002303D01*
X003249Y002330D01*
D11*
X008297Y005401D03*
X008297Y005716D03*
X008297Y006031D03*
X008297Y006346D03*
X008297Y006661D03*
X008297Y006976D03*
X008297Y007291D03*
X008297Y007606D03*
X008297Y007921D03*
X008297Y008236D03*
X008297Y008551D03*
X012863Y008551D03*
X012863Y008236D03*
X012863Y007921D03*
X012863Y007606D03*
X012863Y007291D03*
X012863Y006976D03*
X012863Y006661D03*
X012863Y006346D03*
X012863Y006031D03*
X012863Y005716D03*
X012863Y005401D03*
D12*
X012155Y004693D03*
X011840Y004693D03*
X011525Y004693D03*
X011210Y004693D03*
X010895Y004693D03*
X010580Y004693D03*
X010265Y004693D03*
X009950Y004693D03*
X009635Y004693D03*
X009320Y004693D03*
X009005Y004693D03*
X009005Y009259D03*
X009320Y009259D03*
X009635Y009259D03*
X009950Y009259D03*
X010265Y009259D03*
X010580Y009259D03*
X010895Y009259D03*
X011210Y009259D03*
X011525Y009259D03*
X011840Y009259D03*
X012155Y009259D03*
D13*
X010608Y003069D03*
X010608Y002163D03*
X009152Y002163D03*
X009152Y003069D03*
D14*
X008120Y002810D03*
X008120Y002102D03*
X006840Y002102D03*
X006840Y002810D03*
X011750Y002820D03*
X011750Y002112D03*
D15*
X006294Y006036D03*
X005586Y006036D03*
X005586Y007156D03*
X006294Y007156D03*
X006314Y008276D03*
X005606Y008276D03*
D16*
X001900Y007636D02*
X001300Y007636D01*
X001200Y006636D02*
X001800Y006636D01*
X001800Y008636D02*
X001200Y008636D01*
X001300Y009636D02*
X001900Y009636D01*
D17*
X001220Y005296D03*
X005600Y001616D03*
X015150Y009116D03*
D18*
X015050Y008116D03*
X015150Y007116D03*
X015050Y006116D03*
X015150Y005116D03*
X015050Y004116D03*
X015150Y003116D03*
X015050Y002116D03*
X005600Y002616D03*
X005600Y003616D03*
X005600Y004616D03*
X004220Y005296D03*
X003220Y005296D03*
X002220Y005296D03*
D19*
X005469Y009476D03*
X006571Y009476D03*
D20*
X003885Y009631D03*
X002885Y009631D03*
X002885Y008631D03*
X003885Y008631D03*
X003885Y007631D03*
X002885Y007631D03*
X002885Y006631D03*
X003885Y006631D03*
D21*
X004312Y003314D03*
X004312Y001149D03*
X000848Y001149D03*
X000848Y003314D03*
D22*
X001950Y003536D03*
X002265Y003536D03*
X002580Y003536D03*
X002895Y003536D03*
X003210Y003536D03*
D23*
X003210Y003926D01*
X004020Y004736D01*
X004020Y005096D01*
X004220Y005296D01*
X004736Y005488D02*
X007821Y005488D01*
X007821Y005647D02*
X006553Y005647D01*
X006526Y005620D02*
X006632Y005725D01*
X006632Y006006D01*
X007342Y006716D01*
X007821Y006716D01*
X007821Y005228D01*
X007927Y005123D01*
X008666Y005123D01*
X008772Y005228D01*
X008772Y006376D01*
X008802Y006376D01*
X009053Y006126D01*
X009148Y006086D01*
X009642Y006086D01*
X009473Y005916D01*
X009400Y005843D01*
X009360Y005748D01*
X009360Y005168D01*
X008832Y005168D01*
X008727Y005062D01*
X008727Y004356D01*
X007648Y004356D01*
X007553Y004316D01*
X006753Y003516D01*
X006680Y003443D01*
X006640Y003348D01*
X006640Y003148D01*
X006529Y003148D01*
X006520Y003139D01*
X006520Y004468D01*
X006528Y004476D01*
X006789Y004476D01*
X006887Y004378D01*
X007393Y004378D01*
X007498Y004483D01*
X007498Y004989D01*
X007393Y005094D01*
X006887Y005094D01*
X006789Y004996D01*
X006368Y004996D01*
X006273Y004956D01*
X006118Y004802D01*
X006066Y004928D01*
X005912Y005082D01*
X005709Y005166D01*
X005491Y005166D01*
X005288Y005082D01*
X005134Y004928D01*
X005050Y004725D01*
X005050Y004507D01*
X005134Y004304D01*
X005288Y004150D01*
X005370Y004116D01*
X005288Y004082D01*
X005134Y003928D01*
X005050Y003725D01*
X005050Y003507D01*
X005134Y003304D01*
X005288Y003150D01*
X005370Y003116D01*
X005288Y003082D01*
X005134Y002928D01*
X005050Y002725D01*
X005050Y002507D01*
X005134Y002304D01*
X005272Y002166D01*
X005206Y002166D01*
X005161Y002154D01*
X005119Y002130D01*
X005086Y002097D01*
X005062Y002056D01*
X005050Y002010D01*
X005050Y001636D01*
X005580Y001636D01*
X005580Y001596D01*
X005620Y001596D01*
X005620Y001066D01*
X005994Y001066D01*
X006039Y001078D01*
X006081Y001102D01*
X006114Y001136D01*
X006138Y001177D01*
X006150Y001222D01*
X006150Y001596D01*
X005620Y001596D01*
X005620Y001636D01*
X006150Y001636D01*
X006150Y002010D01*
X006138Y002056D01*
X006114Y002097D01*
X006081Y002130D01*
X006039Y002154D01*
X005994Y002166D01*
X005928Y002166D01*
X006037Y002275D01*
X006040Y002269D01*
X006360Y001949D01*
X006424Y001885D01*
X006424Y001870D01*
X006500Y001793D01*
X006500Y001688D01*
X006552Y001563D01*
X006702Y001413D01*
X006702Y001283D01*
X006807Y001178D01*
X007313Y001178D01*
X007418Y001283D01*
X007418Y001789D01*
X007365Y001842D01*
X007447Y001876D01*
X007520Y001949D01*
X007680Y002109D01*
X007704Y002165D01*
X007704Y002102D01*
X008120Y002102D01*
X008120Y002439D01*
X007860Y002439D01*
X007814Y002427D01*
X007773Y002403D01*
X007740Y002370D01*
X007720Y002335D01*
X007720Y002562D01*
X007809Y002473D01*
X008235Y002473D01*
X008269Y002439D01*
X008120Y002439D01*
X008120Y002102D01*
X008120Y002102D01*
X008536Y002102D01*
X008536Y002172D01*
X008598Y002111D01*
X008598Y001872D01*
X008703Y001767D01*
X009600Y001767D01*
X009706Y001872D01*
X009706Y001916D01*
X009752Y001916D01*
X009847Y001956D01*
X009920Y002029D01*
X010027Y002136D01*
X010054Y002163D01*
X010054Y001872D01*
X010160Y001767D01*
X011057Y001767D01*
X011162Y001872D01*
X011162Y002454D01*
X011057Y002560D01*
X010160Y002560D01*
X010140Y002540D01*
X010140Y002692D01*
X010160Y002672D01*
X010637Y002672D01*
X010709Y002600D01*
X010805Y002560D01*
X011362Y002560D01*
X011439Y002483D01*
X012061Y002483D01*
X012166Y002588D01*
X012166Y003052D01*
X012103Y003116D01*
X013912Y003116D01*
X014080Y002948D01*
X014080Y001564D01*
X014120Y001469D01*
X014360Y001229D01*
X014433Y001156D01*
X014528Y001116D01*
X015512Y001116D01*
X015607Y001156D01*
X016000Y001548D01*
X016000Y000596D01*
X004880Y000596D01*
X004886Y000602D01*
X004886Y001696D01*
X004781Y001801D01*
X003844Y001801D01*
X003739Y001696D01*
X003739Y000602D01*
X003744Y000596D01*
X001416Y000596D01*
X001421Y000602D01*
X001421Y001696D01*
X001316Y001801D01*
X000379Y001801D01*
X000360Y001782D01*
X000360Y002681D01*
X000379Y002662D01*
X001316Y002662D01*
X001421Y002767D01*
X001421Y003861D01*
X001316Y003966D01*
X000379Y003966D01*
X000360Y003947D01*
X000360Y010316D01*
X009309Y010316D01*
X009262Y010269D01*
X009262Y009763D01*
X009290Y009735D01*
X009198Y009735D01*
X009182Y009731D01*
X009178Y009735D01*
X008832Y009735D01*
X008727Y009629D01*
X008727Y008890D01*
X008745Y008871D01*
X008745Y008750D01*
X008666Y008829D01*
X007927Y008829D01*
X007821Y008724D01*
X007821Y008594D01*
X006948Y009467D01*
X006948Y009905D01*
X006843Y010010D01*
X006300Y010010D01*
X006194Y009905D01*
X006194Y009047D01*
X006300Y008942D01*
X006738Y008942D01*
X007499Y008181D01*
X006777Y008181D01*
X006652Y008306D01*
X006652Y008587D01*
X006546Y008692D01*
X006082Y008692D01*
X005977Y008587D01*
X005977Y007965D01*
X006082Y007860D01*
X006363Y007860D01*
X006497Y007726D01*
X006343Y007572D01*
X006062Y007572D01*
X005957Y007467D01*
X005957Y006845D01*
X006062Y006740D01*
X006526Y006740D01*
X006632Y006845D01*
X006632Y007126D01*
X006852Y007346D01*
X007821Y007346D01*
X007821Y007291D01*
X007821Y007236D01*
X007183Y007236D01*
X007087Y007196D01*
X006343Y006452D01*
X006062Y006452D01*
X005957Y006347D01*
X005957Y005725D01*
X006062Y005620D01*
X006526Y005620D01*
X006632Y005805D02*
X007821Y005805D01*
X007821Y005964D02*
X006632Y005964D01*
X006748Y006122D02*
X007821Y006122D01*
X007821Y006281D02*
X006907Y006281D01*
X007065Y006439D02*
X007821Y006439D01*
X007821Y006598D02*
X007224Y006598D01*
X006805Y006915D02*
X006632Y006915D01*
X006647Y006756D02*
X006543Y006756D01*
X006488Y006598D02*
X005018Y006598D01*
X005018Y006439D02*
X005357Y006439D01*
X005359Y006440D02*
X005318Y006416D01*
X005284Y006383D01*
X005260Y006342D01*
X005248Y006296D01*
X005248Y006036D01*
X005248Y005776D01*
X005260Y005730D01*
X005284Y005689D01*
X005318Y005656D01*
X005359Y005632D01*
X005404Y005620D01*
X005586Y005620D01*
X005767Y005620D01*
X005813Y005632D01*
X005854Y005656D01*
X005887Y005689D01*
X005911Y005730D01*
X005923Y005776D01*
X005923Y006036D01*
X005586Y006036D01*
X005586Y006036D01*
X005923Y006036D01*
X005923Y006296D01*
X005911Y006342D01*
X005887Y006383D01*
X005854Y006416D01*
X005813Y006440D01*
X005767Y006452D01*
X005586Y006452D01*
X005586Y006036D01*
X005586Y005620D01*
X005586Y006036D01*
X005586Y006036D01*
X005586Y006036D01*
X005586Y006452D01*
X005404Y006452D01*
X005359Y006440D01*
X005248Y006281D02*
X005018Y006281D01*
X005018Y006243D02*
X005018Y006749D01*
X004913Y006854D01*
X004407Y006854D01*
X004395Y006842D01*
X004106Y007131D01*
X004346Y007371D01*
X005003Y007371D01*
X005248Y007126D01*
X005248Y006845D01*
X005354Y006740D01*
X005818Y006740D01*
X005923Y006845D01*
X005923Y007467D01*
X005818Y007572D01*
X005537Y007572D01*
X005258Y007851D01*
X005163Y007891D01*
X004346Y007891D01*
X004266Y007971D01*
X005268Y007971D01*
X005268Y007965D01*
X005374Y007860D01*
X005838Y007860D01*
X005943Y007965D01*
X005943Y008587D01*
X005838Y008692D01*
X005374Y008692D01*
X005268Y008587D01*
X005268Y008491D01*
X004945Y008491D01*
X005018Y008563D01*
X005018Y008658D01*
X005302Y008942D01*
X005740Y008942D01*
X005846Y009047D01*
X005846Y009905D01*
X005740Y010010D01*
X005197Y010010D01*
X005092Y009905D01*
X005092Y009467D01*
X004799Y009174D01*
X004407Y009174D01*
X004302Y009069D01*
X004302Y008935D01*
X004106Y009131D01*
X004395Y009419D01*
X004395Y009611D01*
X003905Y009611D01*
X003905Y009651D01*
X003865Y009651D01*
X003865Y010141D01*
X003674Y010141D01*
X003385Y009852D01*
X003096Y010141D01*
X002905Y010141D01*
X002905Y009651D01*
X002865Y009651D01*
X002865Y010141D01*
X002674Y010141D01*
X002375Y009842D01*
X002375Y009705D01*
X002368Y009748D01*
X002345Y009820D01*
X002311Y009888D01*
X002266Y009949D01*
X002213Y010002D01*
X002152Y010047D01*
X002084Y010081D01*
X002012Y010104D01*
X001938Y010116D01*
X001620Y010116D01*
X001620Y009656D01*
X002375Y009656D01*
X002375Y009651D01*
X002865Y009651D01*
X002865Y009611D01*
X002380Y009611D01*
X002380Y009616D01*
X001620Y009616D01*
X001620Y009156D01*
X001938Y009156D01*
X002012Y009168D01*
X002084Y009191D01*
X002152Y009225D01*
X002213Y009270D01*
X002266Y009323D01*
X002311Y009384D01*
X002345Y009452D01*
X002368Y009524D01*
X002375Y009567D01*
X002375Y009419D01*
X002664Y009131D01*
X002549Y009016D01*
X002099Y009016D01*
X002072Y009043D01*
X001895Y009116D01*
X001105Y009116D01*
X000928Y009043D01*
X000793Y008908D01*
X000720Y008732D01*
X000720Y008541D01*
X000793Y008364D01*
X000928Y008229D01*
X001105Y008156D01*
X001895Y008156D01*
X002072Y008229D01*
X002099Y008256D01*
X002538Y008256D01*
X002664Y008131D01*
X002549Y008016D01*
X002199Y008016D01*
X002172Y008043D01*
X001995Y008116D01*
X001205Y008116D01*
X001028Y008043D01*
X000893Y007908D01*
X000820Y007732D01*
X000820Y007541D01*
X000893Y007364D01*
X001028Y007229D01*
X001205Y007156D01*
X001995Y007156D01*
X002172Y007229D01*
X002199Y007256D01*
X002538Y007256D01*
X002664Y007131D01*
X002549Y007016D01*
X002099Y007016D01*
X002072Y007043D01*
X001895Y007116D01*
X001105Y007116D01*
X000928Y007043D01*
X000793Y006908D01*
X000720Y006732D01*
X000720Y006541D01*
X000793Y006364D01*
X000928Y006229D01*
X001105Y006156D01*
X001895Y006156D01*
X002072Y006229D01*
X002099Y006256D01*
X002538Y006256D01*
X002674Y006121D01*
X003096Y006121D01*
X003385Y006409D01*
X003674Y006121D01*
X004096Y006121D01*
X004212Y006236D01*
X004309Y006236D01*
X004407Y006138D01*
X004913Y006138D01*
X005018Y006243D01*
X005248Y006122D02*
X004098Y006122D01*
X004111Y005846D02*
X003908Y005762D01*
X003754Y005608D01*
X003720Y005526D01*
X003686Y005608D01*
X003532Y005762D01*
X003329Y005846D01*
X003111Y005846D01*
X002908Y005762D01*
X002754Y005608D01*
X002720Y005526D01*
X002686Y005608D01*
X002532Y005762D01*
X002329Y005846D01*
X002111Y005846D01*
X001908Y005762D01*
X001770Y005624D01*
X001770Y005741D01*
X001665Y005846D01*
X000775Y005846D01*
X000670Y005741D01*
X000670Y004851D01*
X000775Y004746D01*
X001040Y004746D01*
X001040Y004604D01*
X001080Y004509D01*
X001153Y004436D01*
X001672Y003917D01*
X001672Y003007D01*
X001777Y002902D01*
X003383Y002902D01*
X003488Y003007D01*
X003488Y003837D01*
X004167Y004516D01*
X004240Y004589D01*
X004280Y004684D01*
X004280Y004746D01*
X004329Y004746D01*
X004532Y004830D01*
X004686Y004984D01*
X004770Y005187D01*
X004770Y005405D01*
X004686Y005608D01*
X004532Y005762D01*
X004329Y005846D01*
X004111Y005846D01*
X004012Y005805D02*
X003428Y005805D01*
X003647Y005647D02*
X003793Y005647D01*
X004428Y005805D02*
X005248Y005805D01*
X005248Y005964D02*
X000360Y005964D01*
X000360Y005805D02*
X000734Y005805D01*
X000670Y005647D02*
X000360Y005647D01*
X000360Y005488D02*
X000670Y005488D01*
X000670Y005330D02*
X000360Y005330D01*
X000360Y005171D02*
X000670Y005171D01*
X000670Y005013D02*
X000360Y005013D01*
X000360Y004854D02*
X000670Y004854D01*
X000360Y004696D02*
X001040Y004696D01*
X001068Y004537D02*
X000360Y004537D01*
X000360Y004379D02*
X001210Y004379D01*
X001368Y004220D02*
X000360Y004220D01*
X000360Y004062D02*
X001527Y004062D01*
X001672Y003903D02*
X001379Y003903D01*
X001421Y003745D02*
X001672Y003745D01*
X001672Y003586D02*
X001421Y003586D01*
X001421Y003428D02*
X001672Y003428D01*
X001950Y003536D02*
X001950Y004006D01*
X001300Y004656D01*
X001300Y005216D01*
X001220Y005296D01*
X001770Y004968D02*
X001908Y004830D01*
X002005Y004790D01*
X002005Y004319D01*
X001578Y004746D01*
X001665Y004746D01*
X001770Y004851D01*
X001770Y004968D01*
X001770Y004854D02*
X001884Y004854D01*
X002005Y004696D02*
X001628Y004696D01*
X001787Y004537D02*
X002005Y004537D01*
X002005Y004379D02*
X001945Y004379D01*
X002580Y004336D02*
X002900Y004656D01*
X002900Y004976D01*
X003220Y005296D01*
X003720Y005066D02*
X003754Y004984D01*
X003760Y004978D01*
X003760Y004844D01*
X003087Y004170D01*
X003037Y004170D01*
X002840Y004170D01*
X002840Y004228D01*
X003047Y004436D01*
X003120Y004509D01*
X003160Y004604D01*
X003160Y004746D01*
X003329Y004746D01*
X003532Y004830D01*
X003686Y004984D01*
X003720Y005066D01*
X003698Y005013D02*
X003742Y005013D01*
X003760Y004854D02*
X003556Y004854D01*
X003612Y004696D02*
X003160Y004696D01*
X003132Y004537D02*
X003453Y004537D01*
X003295Y004379D02*
X002990Y004379D01*
X003136Y004220D02*
X002840Y004220D01*
X002580Y004336D02*
X002580Y003536D01*
X002265Y003536D02*
X002265Y005251D01*
X002220Y005296D01*
X002640Y004938D02*
X002640Y004764D01*
X002525Y004649D01*
X002525Y004827D01*
X002532Y004830D01*
X002640Y004938D01*
X002640Y004854D02*
X002556Y004854D01*
X002572Y004696D02*
X002525Y004696D01*
X003555Y003903D02*
X003781Y003903D01*
X003739Y003861D02*
X003844Y003966D01*
X004781Y003966D01*
X004886Y003861D01*
X004886Y002767D01*
X004781Y002662D01*
X003844Y002662D01*
X003739Y002767D01*
X003739Y003861D01*
X003739Y003745D02*
X003488Y003745D01*
X003488Y003586D02*
X003739Y003586D01*
X003739Y003428D02*
X003488Y003428D01*
X003488Y003269D02*
X003739Y003269D01*
X003739Y003111D02*
X003488Y003111D01*
X003433Y002952D02*
X003739Y002952D01*
X003739Y002794D02*
X001421Y002794D01*
X001421Y002952D02*
X001727Y002952D01*
X001672Y003111D02*
X001421Y003111D01*
X001421Y003269D02*
X001672Y003269D01*
X001639Y002707D02*
X001500Y002649D01*
X001394Y002543D01*
X001337Y002405D01*
X001337Y002255D01*
X001394Y002116D01*
X001500Y002010D01*
X001639Y001953D01*
X001789Y001953D01*
X001927Y002010D01*
X002033Y002116D01*
X002091Y002255D01*
X002091Y002405D01*
X002033Y002543D01*
X001927Y002649D01*
X001789Y002707D01*
X001639Y002707D01*
X001486Y002635D02*
X000360Y002635D01*
X000360Y002477D02*
X001367Y002477D01*
X001337Y002318D02*
X000360Y002318D01*
X000360Y002160D02*
X001376Y002160D01*
X001523Y002001D02*
X000360Y002001D01*
X000360Y001843D02*
X005050Y001843D01*
X005050Y002001D02*
X003637Y002001D01*
X003660Y002010D02*
X003766Y002116D01*
X003823Y002255D01*
X003823Y002405D01*
X003766Y002543D01*
X003660Y002649D01*
X003521Y002707D01*
X003371Y002707D01*
X003233Y002649D01*
X003127Y002543D01*
X003069Y002405D01*
X003069Y002255D01*
X003127Y002116D01*
X003233Y002010D01*
X003371Y001953D01*
X003521Y001953D01*
X003660Y002010D01*
X003784Y002160D02*
X005182Y002160D01*
X005128Y002318D02*
X003823Y002318D01*
X003793Y002477D02*
X005062Y002477D01*
X005050Y002635D02*
X003674Y002635D01*
X003218Y002635D02*
X001942Y002635D01*
X002061Y002477D02*
X003099Y002477D01*
X003069Y002318D02*
X002091Y002318D01*
X002051Y002160D02*
X003109Y002160D01*
X003255Y002001D02*
X001905Y002001D01*
X001421Y001684D02*
X003739Y001684D01*
X003739Y001526D02*
X001421Y001526D01*
X001421Y001367D02*
X003739Y001367D01*
X003739Y001209D02*
X001421Y001209D01*
X001421Y001050D02*
X003739Y001050D01*
X003739Y000892D02*
X001421Y000892D01*
X001421Y000733D02*
X003739Y000733D01*
X004886Y000733D02*
X016000Y000733D01*
X016000Y000892D02*
X004886Y000892D01*
X004886Y001050D02*
X016000Y001050D01*
X016000Y001209D02*
X015660Y001209D01*
X015819Y001367D02*
X016000Y001367D01*
X016000Y001526D02*
X015977Y001526D01*
X015860Y001776D02*
X015860Y005856D01*
X015540Y006176D01*
X015110Y006176D01*
X015050Y006116D01*
X014538Y005915D02*
X014584Y005804D01*
X014738Y005650D01*
X014870Y005595D01*
X014838Y005582D01*
X014684Y005428D01*
X014638Y005316D01*
X014528Y005316D01*
X014433Y005276D01*
X014360Y005203D01*
X014040Y004884D01*
X014040Y005428D01*
X014190Y005578D01*
X014433Y005578D01*
X014538Y005683D01*
X014538Y005915D01*
X014538Y005805D02*
X014584Y005805D01*
X014501Y005647D02*
X014746Y005647D01*
X014744Y005488D02*
X014100Y005488D01*
X014040Y005330D02*
X014643Y005330D01*
X014580Y005056D02*
X015090Y005056D01*
X015150Y005116D01*
X015600Y004788D02*
X015600Y003444D01*
X015462Y003582D01*
X015325Y003639D01*
X015338Y003646D01*
X015408Y003697D01*
X015470Y003758D01*
X015520Y003828D01*
X015560Y003905D01*
X015586Y003987D01*
X015600Y004073D01*
X015600Y004096D01*
X015070Y004096D01*
X015070Y004136D01*
X015600Y004136D01*
X015600Y004159D01*
X015586Y004245D01*
X015560Y004327D01*
X015520Y004404D01*
X015470Y004474D01*
X015408Y004536D01*
X015338Y004586D01*
X015325Y004593D01*
X015462Y004650D01*
X015600Y004788D01*
X015600Y004696D02*
X015507Y004696D01*
X015600Y004537D02*
X015406Y004537D01*
X015534Y004379D02*
X015600Y004379D01*
X015590Y004220D02*
X015600Y004220D01*
X015598Y004062D02*
X015600Y004062D01*
X015600Y003903D02*
X015559Y003903D01*
X015600Y003745D02*
X015456Y003745D01*
X015453Y003586D02*
X015600Y003586D01*
X014871Y003596D02*
X014838Y003582D01*
X014684Y003428D01*
X014600Y003225D01*
X014600Y003007D01*
X014684Y002804D01*
X014770Y002718D01*
X014770Y002595D01*
X014738Y002582D01*
X014600Y002444D01*
X014600Y003108D01*
X014560Y003203D01*
X014487Y003276D01*
X014167Y003596D01*
X014072Y003636D01*
X013928Y003636D01*
X014327Y004036D01*
X014400Y004109D01*
X014440Y004204D01*
X014440Y004548D01*
X014688Y004796D01*
X014692Y004796D01*
X014838Y004650D01*
X014871Y004636D01*
X014839Y004626D01*
X014762Y004586D01*
X014692Y004536D01*
X014630Y004474D01*
X014580Y004404D01*
X014540Y004327D01*
X014514Y004245D01*
X014500Y004159D01*
X014500Y004136D01*
X015030Y004136D01*
X015030Y004096D01*
X014500Y004096D01*
X014500Y004073D01*
X014514Y003987D01*
X014540Y003905D01*
X014580Y003828D01*
X014630Y003758D01*
X014692Y003697D01*
X014762Y003646D01*
X014839Y003606D01*
X014871Y003596D01*
X014847Y003586D02*
X014178Y003586D01*
X014336Y003428D02*
X014684Y003428D01*
X014618Y003269D02*
X014495Y003269D01*
X014599Y003111D02*
X014600Y003111D01*
X014600Y002952D02*
X014623Y002952D01*
X014600Y002794D02*
X014695Y002794D01*
X014770Y002635D02*
X014600Y002635D01*
X014600Y002477D02*
X014633Y002477D01*
X014080Y002477D02*
X011140Y002477D01*
X011346Y002339D02*
X011370Y002380D01*
X011403Y002413D01*
X011444Y002437D01*
X011490Y002449D01*
X011750Y002449D01*
X011750Y002112D01*
X011750Y002112D01*
X011750Y002449D01*
X012010Y002449D01*
X012056Y002437D01*
X012097Y002413D01*
X012130Y002380D01*
X012154Y002339D01*
X012166Y002293D01*
X012166Y002112D01*
X011750Y002112D01*
X011750Y002112D01*
X011334Y002112D01*
X011334Y002293D01*
X011346Y002339D01*
X011341Y002318D02*
X011162Y002318D01*
X011162Y002160D02*
X011334Y002160D01*
X011334Y002112D02*
X011334Y001931D01*
X011346Y001885D01*
X011370Y001844D01*
X011403Y001810D01*
X011444Y001786D01*
X011490Y001774D01*
X011750Y001774D01*
X011750Y002112D01*
X011750Y002112D01*
X011334Y002112D01*
X011334Y002001D02*
X011162Y002001D01*
X011133Y001843D02*
X011371Y001843D01*
X011750Y001843D02*
X011750Y001843D01*
X011750Y001774D02*
X012010Y001774D01*
X012056Y001786D01*
X012097Y001810D01*
X012130Y001844D01*
X012154Y001885D01*
X012166Y001931D01*
X012166Y002112D01*
X011750Y002112D01*
X011750Y001774D01*
X011750Y002001D02*
X011750Y002001D01*
X011750Y002112D02*
X011750Y002112D01*
X011750Y002160D02*
X011750Y002160D01*
X011750Y002318D02*
X011750Y002318D01*
X012159Y002318D02*
X014080Y002318D01*
X014080Y002160D02*
X012166Y002160D01*
X012166Y002001D02*
X014080Y002001D01*
X014080Y001843D02*
X012129Y001843D01*
X012166Y002635D02*
X014080Y002635D01*
X014080Y002794D02*
X012166Y002794D01*
X012166Y002952D02*
X014076Y002952D01*
X014340Y003056D02*
X014340Y001616D01*
X014580Y001376D01*
X015460Y001376D01*
X015860Y001776D01*
X015600Y001884D02*
X015352Y001636D01*
X015328Y001636D01*
X015362Y001650D01*
X015516Y001804D01*
X015600Y002007D01*
X015600Y002225D01*
X015530Y002394D01*
X015530Y002718D01*
X015600Y002788D01*
X015600Y001884D01*
X015559Y001843D02*
X015532Y001843D01*
X015598Y002001D02*
X015600Y002001D01*
X015600Y002160D02*
X015600Y002160D01*
X015600Y002318D02*
X015562Y002318D01*
X015530Y002477D02*
X015600Y002477D01*
X015600Y002635D02*
X015530Y002635D01*
X014340Y003056D02*
X014020Y003376D01*
X011300Y003376D01*
X010895Y003781D01*
X010895Y004693D01*
X011210Y004693D02*
X011220Y004682D01*
X011220Y003936D01*
X011460Y003696D01*
X013620Y003696D01*
X014180Y004256D01*
X014180Y004656D01*
X014580Y005056D01*
X014327Y005171D02*
X014040Y005171D01*
X014040Y005013D02*
X014169Y005013D01*
X014587Y004696D02*
X014793Y004696D01*
X014694Y004537D02*
X014440Y004537D01*
X014440Y004379D02*
X014566Y004379D01*
X014510Y004220D02*
X014440Y004220D01*
X014502Y004062D02*
X014353Y004062D01*
X014195Y003903D02*
X014541Y003903D01*
X014644Y003745D02*
X014036Y003745D01*
X013380Y004016D02*
X013780Y004416D01*
X013780Y005536D01*
X014180Y005936D01*
X013822Y005946D02*
X013822Y006090D01*
X013542Y005811D01*
X013447Y005771D01*
X013339Y005771D01*
X013339Y005543D01*
X013335Y005539D01*
X013339Y005523D01*
X013339Y005401D01*
X012863Y005401D01*
X012388Y005401D01*
X012388Y005279D01*
X012400Y005233D01*
X012424Y005192D01*
X012458Y005159D01*
X012499Y005135D01*
X012544Y005123D01*
X012863Y005123D01*
X012863Y005401D01*
X012863Y005401D01*
X012863Y005401D01*
X012388Y005401D01*
X012388Y005456D01*
X012108Y005456D01*
X012013Y005496D01*
X011978Y005530D01*
X011978Y005203D01*
X011943Y005168D01*
X012328Y005168D01*
X012433Y005062D01*
X012433Y004323D01*
X012387Y004276D01*
X013272Y004276D01*
X013520Y004524D01*
X013520Y005588D01*
X013560Y005683D01*
X013822Y005946D01*
X013822Y005964D02*
X013695Y005964D01*
X013681Y005805D02*
X013529Y005805D01*
X013544Y005647D02*
X013339Y005647D01*
X013339Y005488D02*
X013520Y005488D01*
X013339Y005401D02*
X012863Y005401D01*
X012863Y005123D01*
X013182Y005123D01*
X013228Y005135D01*
X013269Y005159D01*
X013303Y005192D01*
X013326Y005233D01*
X013339Y005279D01*
X013339Y005401D01*
X013339Y005330D02*
X013520Y005330D01*
X013520Y005171D02*
X013282Y005171D01*
X013520Y005013D02*
X012433Y005013D01*
X012433Y004854D02*
X013520Y004854D01*
X013520Y004696D02*
X012433Y004696D01*
X012433Y004537D02*
X013520Y004537D01*
X013375Y004379D02*
X012433Y004379D01*
X012863Y004773D02*
X012980Y004656D01*
X012863Y004773D02*
X012863Y005401D01*
X012863Y005401D01*
X012863Y005330D02*
X012863Y005330D01*
X012863Y005171D02*
X012863Y005171D01*
X012445Y005171D02*
X011946Y005171D01*
X011978Y005330D02*
X012388Y005330D01*
X012031Y005488D02*
X011978Y005488D01*
X012160Y005716D02*
X011860Y006016D01*
X012060Y006216D01*
X012060Y007056D01*
X011702Y007073D02*
X010760Y007073D01*
X010760Y007232D02*
X011702Y007232D01*
X011702Y007309D02*
X011702Y006803D01*
X011800Y006705D01*
X011800Y006324D01*
X011752Y006276D01*
X010768Y006276D01*
X010760Y006284D01*
X010760Y007756D01*
X011962Y007756D01*
X012057Y007796D01*
X012388Y008127D01*
X012388Y008063D01*
X012388Y007339D01*
X012313Y007414D01*
X011807Y007414D01*
X011702Y007309D01*
X011783Y007390D02*
X010760Y007390D01*
X010760Y007549D02*
X012388Y007549D01*
X012388Y007390D02*
X012337Y007390D01*
X012388Y007707D02*
X010760Y007707D01*
X010500Y007776D02*
X010260Y008016D01*
X011910Y008016D01*
X012180Y008286D01*
X012180Y009234D01*
X012155Y009259D01*
X012433Y009302D02*
X012433Y009629D01*
X012328Y009735D01*
X011982Y009735D01*
X011978Y009731D01*
X011962Y009735D01*
X011840Y009735D01*
X011840Y009260D01*
X011840Y009260D01*
X011840Y009735D01*
X011718Y009735D01*
X011702Y009731D01*
X011698Y009735D01*
X009950Y009735D01*
X009978Y009763D01*
X009978Y010269D01*
X009931Y010316D01*
X016000Y010316D01*
X016000Y006084D01*
X015760Y006323D01*
X015687Y006396D01*
X015592Y006436D01*
X015508Y006436D01*
X015362Y006582D01*
X015330Y006595D01*
X015462Y006650D01*
X015616Y006804D01*
X015700Y007007D01*
X015700Y007225D01*
X015616Y007428D01*
X015462Y007582D01*
X015330Y007637D01*
X015362Y007650D01*
X015516Y007804D01*
X015600Y008007D01*
X015600Y008225D01*
X015516Y008428D01*
X015378Y008566D01*
X015595Y008566D01*
X015700Y008671D01*
X015700Y009561D01*
X015595Y009666D01*
X014705Y009666D01*
X014600Y009561D01*
X014600Y008671D01*
X014705Y008566D01*
X014722Y008566D01*
X014584Y008428D01*
X014500Y008225D01*
X014500Y008007D01*
X014584Y007804D01*
X014738Y007650D01*
X014870Y007595D01*
X014838Y007582D01*
X014684Y007428D01*
X014638Y007316D01*
X014368Y007316D01*
X014273Y007276D01*
X014200Y007203D01*
X013339Y006342D01*
X013339Y008724D01*
X013233Y008829D01*
X012494Y008829D01*
X012440Y008776D01*
X012440Y009286D01*
X012433Y009302D01*
X012438Y009292D02*
X014600Y009292D01*
X014600Y009451D02*
X012433Y009451D01*
X012433Y009609D02*
X014648Y009609D01*
X014600Y009134D02*
X012440Y009134D01*
X012440Y008975D02*
X014600Y008975D01*
X014600Y008817D02*
X013246Y008817D01*
X013339Y008658D02*
X014613Y008658D01*
X014656Y008500D02*
X013339Y008500D01*
X013339Y008341D02*
X014548Y008341D01*
X014500Y008183D02*
X013339Y008183D01*
X013339Y008024D02*
X014500Y008024D01*
X014558Y007866D02*
X013339Y007866D01*
X013339Y007707D02*
X014681Y007707D01*
X014805Y007549D02*
X013339Y007549D01*
X013339Y007390D02*
X014668Y007390D01*
X014420Y007056D02*
X015090Y007056D01*
X015150Y007116D01*
X015662Y006915D02*
X016000Y006915D01*
X016000Y006756D02*
X015568Y006756D01*
X015335Y006598D02*
X016000Y006598D01*
X016000Y006439D02*
X015505Y006439D01*
X015803Y006281D02*
X016000Y006281D01*
X016000Y006122D02*
X015962Y006122D01*
X015600Y005748D02*
X015524Y005824D01*
X015516Y005804D01*
X015362Y005650D01*
X015330Y005637D01*
X015462Y005582D01*
X015600Y005444D01*
X015600Y005748D01*
X015543Y005805D02*
X015516Y005805D01*
X015600Y005647D02*
X015354Y005647D01*
X015556Y005488D02*
X015600Y005488D01*
X014500Y006226D02*
X014433Y006294D01*
X014026Y006294D01*
X014528Y006796D01*
X014692Y006796D01*
X014838Y006650D01*
X014870Y006637D01*
X014738Y006582D01*
X014584Y006428D01*
X014500Y006226D01*
X014523Y006281D02*
X014446Y006281D01*
X014595Y006439D02*
X014171Y006439D01*
X014329Y006598D02*
X014775Y006598D01*
X014732Y006756D02*
X014488Y006756D01*
X014420Y007056D02*
X013395Y006031D01*
X012863Y006031D01*
X012863Y005716D02*
X012160Y005716D01*
X012268Y005976D02*
X012228Y006016D01*
X012280Y006069D01*
X012320Y006164D01*
X012320Y006705D01*
X012388Y006773D01*
X012388Y005976D01*
X012268Y005976D01*
X012302Y006122D02*
X012388Y006122D01*
X012388Y006281D02*
X012320Y006281D01*
X012320Y006439D02*
X012388Y006439D01*
X012388Y006598D02*
X012320Y006598D01*
X012371Y006756D02*
X012388Y006756D01*
X011800Y006598D02*
X010760Y006598D01*
X010760Y006439D02*
X011800Y006439D01*
X011757Y006281D02*
X010763Y006281D01*
X010500Y006176D02*
X010500Y007776D01*
X010260Y008016D02*
X009460Y008016D01*
X009005Y008471D01*
X009005Y009259D01*
X009320Y009259D02*
X009320Y009259D01*
X009320Y008784D01*
X009265Y008784D01*
X009265Y008579D01*
X009568Y008276D01*
X010208Y008276D01*
X011802Y008276D01*
X011920Y008394D01*
X011920Y008784D01*
X011840Y008784D01*
X011840Y009259D01*
X011840Y009259D01*
X011840Y008784D01*
X011718Y008784D01*
X011702Y008788D01*
X011698Y008784D01*
X009462Y008784D01*
X009458Y008788D01*
X009442Y008784D01*
X009320Y008784D01*
X009320Y009259D01*
X009320Y008636D01*
X009460Y008496D01*
X009940Y008496D01*
X011620Y008496D01*
X011840Y008716D01*
X011840Y009259D01*
X011840Y009292D02*
X011840Y009292D01*
X011840Y009451D02*
X011840Y009451D01*
X011840Y009609D02*
X011840Y009609D01*
X011840Y009134D02*
X011840Y009134D01*
X011840Y008975D02*
X011840Y008975D01*
X011840Y008817D02*
X011840Y008817D01*
X011920Y008658D02*
X009265Y008658D01*
X009320Y008817D02*
X009320Y008817D01*
X009320Y008975D02*
X009320Y008975D01*
X009320Y009134D02*
X009320Y009134D01*
X009635Y009259D02*
X009635Y010001D01*
X009620Y010016D01*
X009978Y010085D02*
X016000Y010085D01*
X016000Y010243D02*
X009978Y010243D01*
X009978Y009926D02*
X016000Y009926D01*
X016000Y009768D02*
X009978Y009768D01*
X009262Y009768D02*
X006948Y009768D01*
X006948Y009609D02*
X008727Y009609D01*
X008727Y009451D02*
X006964Y009451D01*
X007123Y009292D02*
X008727Y009292D01*
X008727Y009134D02*
X007281Y009134D01*
X007440Y008975D02*
X008727Y008975D01*
X008745Y008817D02*
X008679Y008817D01*
X009344Y008500D02*
X011920Y008500D01*
X011867Y008341D02*
X009503Y008341D01*
X009250Y007726D02*
X008740Y008236D01*
X008297Y008236D01*
X007811Y008236D01*
X006571Y009476D01*
X006194Y009451D02*
X005846Y009451D01*
X005846Y009292D02*
X006194Y009292D01*
X006194Y009134D02*
X005846Y009134D01*
X005774Y008975D02*
X006266Y008975D01*
X006048Y008658D02*
X005872Y008658D01*
X005943Y008500D02*
X005977Y008500D01*
X005977Y008341D02*
X005943Y008341D01*
X005943Y008183D02*
X005977Y008183D01*
X005977Y008024D02*
X005943Y008024D01*
X005843Y007866D02*
X006077Y007866D01*
X006478Y007707D02*
X005402Y007707D01*
X005368Y007866D02*
X005223Y007866D01*
X005111Y007631D02*
X005586Y007156D01*
X005923Y007232D02*
X005957Y007232D01*
X005957Y007073D02*
X005923Y007073D01*
X005923Y006915D02*
X005957Y006915D01*
X006046Y006756D02*
X005834Y006756D01*
X005814Y006439D02*
X006049Y006439D01*
X005957Y006281D02*
X005923Y006281D01*
X005923Y006122D02*
X005957Y006122D01*
X005957Y005964D02*
X005923Y005964D01*
X005923Y005805D02*
X005957Y005805D01*
X006036Y005647D02*
X005838Y005647D01*
X005586Y005647D02*
X005586Y005647D01*
X005586Y005805D02*
X005586Y005805D01*
X005586Y005964D02*
X005586Y005964D01*
X005586Y006036D02*
X005248Y006036D01*
X005586Y006036D01*
X005586Y006036D01*
X005586Y006122D02*
X005586Y006122D01*
X005586Y006281D02*
X005586Y006281D01*
X005586Y006439D02*
X005586Y006439D01*
X005337Y006756D02*
X005011Y006756D01*
X005248Y006915D02*
X004322Y006915D01*
X004395Y006842D02*
X004395Y006842D01*
X004164Y007073D02*
X005248Y007073D01*
X005142Y007232D02*
X004207Y007232D01*
X003664Y007131D02*
X003385Y007409D01*
X003106Y007131D01*
X003385Y006852D01*
X003664Y007131D01*
X003606Y007073D02*
X003164Y007073D01*
X003207Y007232D02*
X003563Y007232D01*
X003404Y007390D02*
X003366Y007390D01*
X003885Y007631D02*
X005111Y007631D01*
X005841Y007549D02*
X006039Y007549D01*
X005957Y007390D02*
X005923Y007390D01*
X006294Y007156D02*
X006744Y007606D01*
X008297Y007606D01*
X008297Y007921D02*
X006669Y007921D01*
X006314Y008276D01*
X006652Y008341D02*
X007338Y008341D01*
X007180Y008500D02*
X006652Y008500D01*
X006581Y008658D02*
X007021Y008658D01*
X006863Y008817D02*
X005177Y008817D01*
X005019Y008658D02*
X005339Y008658D01*
X005268Y008500D02*
X004954Y008500D01*
X004820Y008827D02*
X004660Y008816D01*
X004820Y008827D02*
X005469Y009476D01*
X005076Y009451D02*
X004395Y009451D01*
X004268Y009292D02*
X004917Y009292D01*
X005092Y009609D02*
X004395Y009609D01*
X004395Y009651D02*
X004395Y009842D01*
X004096Y010141D01*
X003905Y010141D01*
X003905Y009651D01*
X004395Y009651D01*
X004395Y009768D02*
X005092Y009768D01*
X005113Y009926D02*
X004311Y009926D01*
X004152Y010085D02*
X009262Y010085D01*
X009262Y010243D02*
X000360Y010243D01*
X000360Y010085D02*
X001127Y010085D01*
X001116Y010081D02*
X001048Y010047D01*
X000987Y010002D01*
X000934Y009949D01*
X000889Y009888D01*
X000855Y009820D01*
X000832Y009748D01*
X000820Y009674D01*
X000820Y009656D01*
X001580Y009656D01*
X001580Y009616D01*
X001620Y009616D01*
X001620Y009656D01*
X001580Y009656D01*
X001580Y010116D01*
X001262Y010116D01*
X001188Y010104D01*
X001116Y010081D01*
X000917Y009926D02*
X000360Y009926D01*
X000360Y009768D02*
X000838Y009768D01*
X000820Y009616D02*
X000820Y009598D01*
X000832Y009524D01*
X000855Y009452D01*
X000889Y009384D01*
X000934Y009323D01*
X000987Y009270D01*
X001048Y009225D01*
X001116Y009191D01*
X001188Y009168D01*
X001262Y009156D01*
X001580Y009156D01*
X001580Y009616D01*
X000820Y009616D01*
X000820Y009609D02*
X000360Y009609D01*
X000360Y009451D02*
X000856Y009451D01*
X000965Y009292D02*
X000360Y009292D01*
X000360Y009134D02*
X002661Y009134D01*
X002502Y009292D02*
X002235Y009292D01*
X002344Y009451D02*
X002375Y009451D01*
X002362Y009768D02*
X002375Y009768D01*
X002459Y009926D02*
X002283Y009926D01*
X002073Y010085D02*
X002618Y010085D01*
X002865Y010085D02*
X002905Y010085D01*
X002905Y009926D02*
X002865Y009926D01*
X002865Y009768D02*
X002905Y009768D01*
X002905Y009651D02*
X003395Y009651D01*
X003865Y009651D01*
X003865Y009611D01*
X002905Y009611D01*
X002905Y009651D01*
X003311Y009926D02*
X003459Y009926D01*
X003618Y010085D02*
X003152Y010085D01*
X003865Y010085D02*
X003905Y010085D01*
X003905Y009926D02*
X003865Y009926D01*
X003865Y009768D02*
X003905Y009768D01*
X003385Y009409D02*
X003664Y009131D01*
X003385Y008852D01*
X003106Y009131D01*
X003385Y009409D01*
X003268Y009292D02*
X003502Y009292D01*
X003661Y009134D02*
X003109Y009134D01*
X003262Y008975D02*
X003508Y008975D01*
X003885Y008631D02*
X004285Y008231D01*
X005560Y008231D01*
X005606Y008276D01*
X006776Y008183D02*
X007497Y008183D01*
X007757Y008658D02*
X007821Y008658D01*
X007914Y008817D02*
X007598Y008817D01*
X008772Y007837D02*
X009030Y007579D01*
X009103Y007506D01*
X009198Y007466D01*
X009782Y007466D01*
X009910Y007338D01*
X009910Y006824D01*
X009692Y006606D01*
X009308Y006606D01*
X009130Y006783D01*
X009057Y006856D01*
X008962Y006896D01*
X008772Y006896D01*
X008772Y007149D01*
X008768Y007153D01*
X008772Y007169D01*
X008772Y007291D01*
X008772Y007413D01*
X008768Y007429D01*
X008772Y007433D01*
X008772Y007837D01*
X008772Y007707D02*
X008901Y007707D01*
X008772Y007549D02*
X009060Y007549D01*
X009250Y007726D02*
X009890Y007726D01*
X010170Y007446D01*
X010170Y006716D01*
X009800Y006346D01*
X009200Y006346D01*
X008910Y006636D01*
X008322Y006636D01*
X008297Y006661D01*
X008297Y006976D02*
X007234Y006976D01*
X006294Y006036D01*
X005334Y005647D02*
X004647Y005647D01*
X004770Y005330D02*
X007821Y005330D01*
X007878Y005171D02*
X004764Y005171D01*
X004698Y005013D02*
X005219Y005013D01*
X005103Y004854D02*
X004556Y004854D01*
X004280Y004696D02*
X005050Y004696D01*
X005050Y004537D02*
X004189Y004537D01*
X004030Y004379D02*
X005103Y004379D01*
X005218Y004220D02*
X003872Y004220D01*
X003713Y004062D02*
X005268Y004062D01*
X005124Y003903D02*
X004844Y003903D01*
X004886Y003745D02*
X005058Y003745D01*
X005050Y003586D02*
X004886Y003586D01*
X004886Y003428D02*
X005083Y003428D01*
X005169Y003269D02*
X004886Y003269D01*
X004886Y003111D02*
X005357Y003111D01*
X005158Y002952D02*
X004886Y002952D01*
X004886Y002794D02*
X005078Y002794D01*
X005830Y003116D02*
X005912Y003150D01*
X006000Y003238D01*
X006000Y002994D01*
X005912Y003082D01*
X005830Y003116D01*
X005843Y003111D02*
X006000Y003111D01*
X006520Y003269D02*
X006640Y003269D01*
X006673Y003428D02*
X006520Y003428D01*
X006520Y003586D02*
X006822Y003586D01*
X006981Y003745D02*
X006520Y003745D01*
X006520Y003903D02*
X007139Y003903D01*
X007298Y004062D02*
X006520Y004062D01*
X006520Y004220D02*
X007456Y004220D01*
X007393Y004379D02*
X008727Y004379D01*
X008727Y004537D02*
X007498Y004537D01*
X007498Y004696D02*
X008727Y004696D01*
X008727Y004854D02*
X007498Y004854D01*
X007474Y005013D02*
X008727Y005013D01*
X008715Y005171D02*
X009360Y005171D01*
X009360Y005330D02*
X008772Y005330D01*
X008772Y005488D02*
X009360Y005488D01*
X009360Y005647D02*
X008772Y005647D01*
X008772Y005805D02*
X009384Y005805D01*
X009520Y005964D02*
X008772Y005964D01*
X008772Y006122D02*
X009061Y006122D01*
X008898Y006281D02*
X008772Y006281D01*
X009158Y006756D02*
X009842Y006756D01*
X009910Y006915D02*
X008772Y006915D01*
X008772Y007073D02*
X009910Y007073D01*
X009910Y007232D02*
X008772Y007232D01*
X008772Y007291D02*
X008297Y007291D01*
X008772Y007291D01*
X008772Y007390D02*
X009858Y007390D01*
X009470Y006926D02*
X009105Y007291D01*
X008297Y007291D01*
X008297Y007291D01*
X007821Y007291D01*
X008297Y007291D01*
X008297Y007291D01*
X007172Y007232D02*
X006738Y007232D01*
X006632Y007073D02*
X006964Y007073D01*
X004660Y006496D02*
X004020Y006496D01*
X003885Y006631D01*
X003448Y006915D02*
X003322Y006915D01*
X002606Y007073D02*
X001999Y007073D01*
X002174Y007232D02*
X002563Y007232D01*
X003371Y007866D02*
X003399Y007866D01*
X003385Y007852D02*
X003106Y008131D01*
X003385Y008409D01*
X003664Y008131D01*
X003385Y007852D01*
X003213Y008024D02*
X003557Y008024D01*
X003612Y008183D02*
X003158Y008183D01*
X003317Y008341D02*
X003453Y008341D01*
X002612Y008183D02*
X001959Y008183D01*
X002191Y008024D02*
X002557Y008024D01*
X001041Y008183D02*
X000360Y008183D01*
X000360Y008024D02*
X001009Y008024D01*
X000876Y007866D02*
X000360Y007866D01*
X000360Y007707D02*
X000820Y007707D01*
X000820Y007549D02*
X000360Y007549D01*
X000360Y007390D02*
X000882Y007390D01*
X001026Y007232D02*
X000360Y007232D01*
X000360Y007073D02*
X001001Y007073D01*
X000800Y006915D02*
X000360Y006915D01*
X000360Y006756D02*
X000730Y006756D01*
X000720Y006598D02*
X000360Y006598D01*
X000360Y006439D02*
X000762Y006439D01*
X000877Y006281D02*
X000360Y006281D01*
X000360Y006122D02*
X002672Y006122D01*
X003098Y006122D02*
X003672Y006122D01*
X003514Y006281D02*
X003256Y006281D01*
X003012Y005805D02*
X002428Y005805D01*
X002647Y005647D02*
X002793Y005647D01*
X002012Y005805D02*
X001706Y005805D01*
X001770Y005647D02*
X001793Y005647D01*
X005830Y004116D02*
X005912Y004150D01*
X006000Y004238D01*
X006000Y003994D01*
X005912Y004082D01*
X005830Y004116D01*
X005932Y004062D02*
X006000Y004062D01*
X006000Y004220D02*
X005982Y004220D01*
X006260Y004576D02*
X006260Y002416D01*
X006580Y002096D01*
X006834Y002096D01*
X006840Y002102D01*
X006846Y002096D01*
X007300Y002096D01*
X007460Y002256D01*
X007460Y003216D01*
X007860Y003616D01*
X009380Y003616D01*
X009620Y003856D01*
X009620Y004708D01*
X009635Y004693D01*
X009620Y004708D02*
X009620Y005696D01*
X009940Y006016D01*
X010660Y006016D01*
X010500Y006176D01*
X010660Y006016D02*
X011860Y006016D01*
X011309Y005756D02*
X011262Y005709D01*
X011262Y005203D01*
X011265Y005200D01*
X011265Y005168D01*
X010092Y005168D01*
X010088Y005164D01*
X010072Y005168D01*
X009950Y005168D01*
X009880Y005168D01*
X009880Y005588D01*
X010048Y005756D01*
X011309Y005756D01*
X011262Y005647D02*
X009938Y005647D01*
X009880Y005488D02*
X011262Y005488D01*
X011262Y005330D02*
X009880Y005330D01*
X009950Y005386D02*
X010100Y005536D01*
X010660Y005536D01*
X011265Y005171D02*
X009880Y005171D01*
X009950Y005168D02*
X009950Y004693D01*
X009950Y004693D01*
X009950Y005168D01*
X009950Y005013D02*
X009950Y005013D01*
X009950Y004854D02*
X009950Y004854D01*
X009950Y004696D02*
X009950Y004696D01*
X009950Y004693D02*
X009950Y005386D01*
X009950Y004693D02*
X009950Y004217D01*
X009880Y004217D01*
X009880Y003804D01*
X009851Y003735D01*
X010000Y003884D01*
X010000Y004217D01*
X009950Y004217D01*
X009950Y004693D01*
X009950Y004693D01*
X009950Y004537D02*
X009950Y004537D01*
X009950Y004379D02*
X009950Y004379D01*
X009950Y004220D02*
X009950Y004220D01*
X010000Y004062D02*
X009880Y004062D01*
X009880Y003903D02*
X010000Y003903D01*
X009861Y003745D02*
X009855Y003745D01*
X009880Y003396D02*
X010260Y003776D01*
X010260Y004688D01*
X010265Y004693D01*
X010580Y004693D02*
X010580Y003097D01*
X010608Y003069D01*
X010857Y002820D01*
X011750Y002820D01*
X011397Y003116D02*
X011362Y003080D01*
X011162Y003080D01*
X011162Y003152D01*
X011248Y003116D01*
X011397Y003116D01*
X011392Y003111D02*
X011162Y003111D01*
X010843Y003465D02*
X010840Y003465D01*
X010840Y003468D01*
X010843Y003465D01*
X010320Y003465D02*
X010317Y003465D01*
X010320Y003468D01*
X010320Y003465D01*
X009880Y003396D02*
X009880Y002356D01*
X009700Y002176D01*
X009164Y002176D01*
X009152Y002163D01*
X009059Y002256D01*
X008820Y002256D01*
X008266Y002810D01*
X008120Y002810D01*
X007809Y003148D02*
X007720Y003059D01*
X007720Y003108D01*
X007968Y003356D01*
X008598Y003356D01*
X008598Y002846D01*
X008536Y002907D01*
X008536Y003042D01*
X008431Y003148D01*
X007809Y003148D01*
X007772Y003111D02*
X007722Y003111D01*
X007881Y003269D02*
X008598Y003269D01*
X008598Y003111D02*
X008468Y003111D01*
X008536Y002952D02*
X008598Y002952D01*
X008771Y002672D02*
X009600Y002672D01*
X009620Y002692D01*
X009620Y002540D01*
X009600Y002560D01*
X008884Y002560D01*
X008771Y002672D01*
X008809Y002635D02*
X009620Y002635D01*
X010140Y002635D02*
X010674Y002635D01*
X010054Y002160D02*
X010051Y002160D01*
X009920Y002029D02*
X009920Y002029D01*
X009893Y002001D02*
X010054Y002001D01*
X010084Y001843D02*
X009676Y001843D01*
X008627Y001843D02*
X008505Y001843D01*
X008500Y001834D02*
X008524Y001875D01*
X008536Y001921D01*
X008536Y002102D01*
X008120Y002102D01*
X008120Y002102D01*
X008120Y002102D01*
X007704Y002102D01*
X007704Y001921D01*
X007716Y001875D01*
X007740Y001834D01*
X007773Y001800D01*
X007814Y001776D01*
X007860Y001764D01*
X008120Y001764D01*
X008120Y002102D01*
X008120Y001764D01*
X008380Y001764D01*
X008426Y001776D01*
X008467Y001800D01*
X008500Y001834D01*
X008536Y002001D02*
X008598Y002001D01*
X008549Y002160D02*
X008536Y002160D01*
X008120Y002160D02*
X008120Y002160D01*
X008120Y002102D02*
X008120Y002102D01*
X008120Y002001D02*
X008120Y002001D01*
X008120Y001843D02*
X008120Y001843D01*
X007735Y001843D02*
X007367Y001843D01*
X007573Y002001D02*
X007704Y002001D01*
X007701Y002160D02*
X007704Y002160D01*
X008120Y002318D02*
X008120Y002318D01*
X007806Y002477D02*
X007720Y002477D01*
X007200Y002477D02*
X007154Y002477D01*
X007151Y002473D02*
X006571Y002473D01*
X006605Y002439D01*
X006766Y002439D01*
X006772Y002442D01*
X006908Y002442D01*
X006914Y002439D01*
X007151Y002439D01*
X007200Y002390D01*
X007200Y002522D01*
X007151Y002473D01*
X006840Y002810D02*
X006900Y002870D01*
X006900Y003296D01*
X007700Y004096D01*
X009140Y004096D01*
X009320Y004276D01*
X009320Y004693D01*
X009649Y003517D02*
X009620Y003448D01*
X009620Y003446D01*
X009600Y003465D01*
X009597Y003465D01*
X009600Y003469D01*
X009649Y003517D01*
X011480Y004044D02*
X011480Y004217D01*
X011580Y004217D01*
X011580Y004064D01*
X011619Y003969D01*
X011632Y003956D01*
X011568Y003956D01*
X011480Y004044D01*
X011480Y004062D02*
X011581Y004062D01*
X011840Y004116D02*
X011940Y004016D01*
X013380Y004016D01*
X013918Y003111D02*
X012108Y003111D01*
X011840Y004116D02*
X011840Y004693D01*
X011525Y004693D02*
X011525Y005361D01*
X011620Y005456D01*
X010240Y006276D02*
X010240Y006418D01*
X010098Y006276D01*
X010240Y006276D01*
X010240Y006281D02*
X010102Y006281D01*
X010760Y006756D02*
X011749Y006756D01*
X011702Y006915D02*
X010760Y006915D01*
X012127Y007866D02*
X012388Y007866D01*
X012388Y008024D02*
X012286Y008024D01*
X012440Y008817D02*
X012481Y008817D01*
X013339Y007232D02*
X014228Y007232D01*
X014069Y007073D02*
X013339Y007073D01*
X013339Y006915D02*
X013911Y006915D01*
X013752Y006756D02*
X013339Y006756D01*
X013339Y006598D02*
X013594Y006598D01*
X013435Y006439D02*
X013339Y006439D01*
X015495Y007549D02*
X016000Y007549D01*
X016000Y007390D02*
X015632Y007390D01*
X015697Y007232D02*
X016000Y007232D01*
X016000Y007073D02*
X015700Y007073D01*
X015419Y007707D02*
X016000Y007707D01*
X016000Y007866D02*
X015542Y007866D01*
X015600Y008024D02*
X016000Y008024D01*
X016000Y008183D02*
X015600Y008183D01*
X015552Y008341D02*
X016000Y008341D01*
X016000Y008500D02*
X015444Y008500D01*
X015687Y008658D02*
X016000Y008658D01*
X016000Y008817D02*
X015700Y008817D01*
X015700Y008975D02*
X016000Y008975D01*
X016000Y009134D02*
X015700Y009134D01*
X015700Y009292D02*
X016000Y009292D01*
X016000Y009451D02*
X015700Y009451D01*
X015652Y009609D02*
X016000Y009609D01*
X009262Y009926D02*
X006927Y009926D01*
X006215Y009926D02*
X005825Y009926D01*
X005846Y009768D02*
X006194Y009768D01*
X006194Y009609D02*
X005846Y009609D01*
X004367Y009134D02*
X004109Y009134D01*
X004262Y008975D02*
X004302Y008975D01*
X001620Y009292D02*
X001580Y009292D01*
X001580Y009451D02*
X001620Y009451D01*
X001620Y009609D02*
X001580Y009609D01*
X001580Y009768D02*
X001620Y009768D01*
X001620Y009926D02*
X001580Y009926D01*
X001580Y010085D02*
X001620Y010085D01*
X000860Y008975D02*
X000360Y008975D01*
X000360Y008817D02*
X000755Y008817D01*
X000720Y008658D02*
X000360Y008658D01*
X000360Y008500D02*
X000737Y008500D01*
X000816Y008341D02*
X000360Y008341D01*
X005981Y005013D02*
X006806Y005013D01*
X007140Y004736D02*
X006420Y004736D01*
X006260Y004576D01*
X006520Y004379D02*
X006887Y004379D01*
X006170Y004854D02*
X006097Y004854D01*
X007200Y003228D02*
X007200Y003099D01*
X007160Y003139D01*
X007160Y003188D01*
X007200Y003228D01*
X007188Y003111D02*
X007200Y003111D01*
X006149Y002160D02*
X006018Y002160D01*
X006150Y002001D02*
X006307Y002001D01*
X006451Y001843D02*
X006150Y001843D01*
X006150Y001684D02*
X006502Y001684D01*
X006590Y001526D02*
X006150Y001526D01*
X006150Y001367D02*
X006702Y001367D01*
X006777Y001209D02*
X006146Y001209D01*
X005620Y001209D02*
X005580Y001209D01*
X005580Y001367D02*
X005620Y001367D01*
X005620Y001526D02*
X005580Y001526D01*
X005580Y001596D02*
X005580Y001066D01*
X005206Y001066D01*
X005161Y001078D01*
X005119Y001102D01*
X005086Y001136D01*
X005062Y001177D01*
X005050Y001222D01*
X005050Y001596D01*
X005580Y001596D01*
X005050Y001526D02*
X004886Y001526D01*
X004886Y001684D02*
X005050Y001684D01*
X005050Y001367D02*
X004886Y001367D01*
X004886Y001209D02*
X005054Y001209D01*
X007343Y001209D02*
X014380Y001209D01*
X014221Y001367D02*
X007418Y001367D01*
X007418Y001526D02*
X014096Y001526D01*
X014080Y001684D02*
X007418Y001684D01*
X014600Y001724D02*
X014688Y001636D01*
X014772Y001636D01*
X014738Y001650D01*
X014600Y001788D01*
X014600Y001724D01*
X014640Y001684D02*
X014704Y001684D01*
X015396Y001684D02*
X015400Y001684D01*
D24*
X012980Y004656D03*
X011620Y005456D03*
X010660Y005536D03*
X009470Y006926D03*
X009940Y008496D03*
X012060Y007056D03*
X014180Y005936D03*
X009620Y010016D03*
X004660Y008816D03*
X004660Y006496D03*
X007140Y004736D03*
X007060Y001536D03*
D25*
X002885Y006631D02*
X002880Y006636D01*
X001500Y006636D01*
X001600Y007636D02*
X002880Y007636D01*
X002885Y007631D01*
X002885Y008631D02*
X002880Y008636D01*
X001500Y008636D01*
X015050Y002116D02*
X015150Y002216D01*
X015150Y003116D01*
D26*
X007060Y001536D02*
X006840Y001756D01*
X006840Y002102D01*
M02*
