G75*
G70*
%OFA0B0*%
%FSLAX24Y24*%
%IPPOS*%
%LPD*%
%AMOC8*
5,1,8,0,0,1.08239X$1,22.5*
%
%ADD10C,0.0000*%
%ADD11R,0.0591X0.0197*%
%ADD12R,0.0197X0.0591*%
%ADD13R,0.0748X0.0433*%
%ADD14R,0.0472X0.0315*%
%ADD15R,0.0315X0.0472*%
%ADD16R,0.0394X0.0709*%
%ADD17R,0.0787X0.0945*%
%ADD18R,0.0197X0.0909*%
D10*
X000180Y000416D02*
X000180Y010496D01*
X016180Y010496D01*
X016180Y000416D01*
X000180Y000416D01*
X001517Y002330D02*
X001519Y002357D01*
X001525Y002384D01*
X001534Y002410D01*
X001547Y002434D01*
X001563Y002457D01*
X001582Y002476D01*
X001604Y002493D01*
X001628Y002507D01*
X001653Y002517D01*
X001680Y002524D01*
X001707Y002527D01*
X001735Y002526D01*
X001762Y002521D01*
X001788Y002513D01*
X001812Y002501D01*
X001835Y002485D01*
X001856Y002467D01*
X001873Y002446D01*
X001888Y002422D01*
X001899Y002397D01*
X001907Y002371D01*
X001911Y002344D01*
X001911Y002316D01*
X001907Y002289D01*
X001899Y002263D01*
X001888Y002238D01*
X001873Y002214D01*
X001856Y002193D01*
X001835Y002175D01*
X001813Y002159D01*
X001788Y002147D01*
X001762Y002139D01*
X001735Y002134D01*
X001707Y002133D01*
X001680Y002136D01*
X001653Y002143D01*
X001628Y002153D01*
X001604Y002167D01*
X001582Y002184D01*
X001563Y002203D01*
X001547Y002226D01*
X001534Y002250D01*
X001525Y002276D01*
X001519Y002303D01*
X001517Y002330D01*
X003249Y002330D02*
X003251Y002357D01*
X003257Y002384D01*
X003266Y002410D01*
X003279Y002434D01*
X003295Y002457D01*
X003314Y002476D01*
X003336Y002493D01*
X003360Y002507D01*
X003385Y002517D01*
X003412Y002524D01*
X003439Y002527D01*
X003467Y002526D01*
X003494Y002521D01*
X003520Y002513D01*
X003544Y002501D01*
X003567Y002485D01*
X003588Y002467D01*
X003605Y002446D01*
X003620Y002422D01*
X003631Y002397D01*
X003639Y002371D01*
X003643Y002344D01*
X003643Y002316D01*
X003639Y002289D01*
X003631Y002263D01*
X003620Y002238D01*
X003605Y002214D01*
X003588Y002193D01*
X003567Y002175D01*
X003545Y002159D01*
X003520Y002147D01*
X003494Y002139D01*
X003467Y002134D01*
X003439Y002133D01*
X003412Y002136D01*
X003385Y002143D01*
X003360Y002153D01*
X003336Y002167D01*
X003314Y002184D01*
X003295Y002203D01*
X003279Y002226D01*
X003266Y002250D01*
X003257Y002276D01*
X003251Y002303D01*
X003249Y002330D01*
D11*
X008297Y005401D03*
X008297Y005716D03*
X008297Y006031D03*
X008297Y006346D03*
X008297Y006661D03*
X008297Y006976D03*
X008297Y007291D03*
X008297Y007606D03*
X008297Y007921D03*
X008297Y008236D03*
X008297Y008551D03*
X012863Y008551D03*
X012863Y008236D03*
X012863Y007921D03*
X012863Y007606D03*
X012863Y007291D03*
X012863Y006976D03*
X012863Y006661D03*
X012863Y006346D03*
X012863Y006031D03*
X012863Y005716D03*
X012863Y005401D03*
D12*
X012155Y004693D03*
X011840Y004693D03*
X011525Y004693D03*
X011210Y004693D03*
X010895Y004693D03*
X010580Y004693D03*
X010265Y004693D03*
X009950Y004693D03*
X009635Y004693D03*
X009320Y004693D03*
X009005Y004693D03*
X009005Y009259D03*
X009320Y009259D03*
X009635Y009259D03*
X009950Y009259D03*
X010265Y009259D03*
X010580Y009259D03*
X010895Y009259D03*
X011210Y009259D03*
X011525Y009259D03*
X011840Y009259D03*
X012155Y009259D03*
D13*
X010608Y003069D03*
X010608Y002163D03*
X009152Y002163D03*
X009152Y003069D03*
D14*
X008120Y002810D03*
X008120Y002102D03*
X006840Y002102D03*
X006840Y002810D03*
X011750Y002820D03*
X011750Y002112D03*
D15*
X006294Y006036D03*
X005586Y006036D03*
X005586Y007156D03*
X006294Y007156D03*
X006314Y008276D03*
X005606Y008276D03*
D16*
X005469Y009476D03*
X006571Y009476D03*
D17*
X004312Y003314D03*
X004312Y001149D03*
X000848Y001149D03*
X000848Y003314D03*
D18*
X001950Y003536D03*
X002265Y003536D03*
X002580Y003536D03*
X002895Y003536D03*
X003210Y003536D03*
M02*
