G75*
G70*
%OFA0B0*%
%FSLAX24Y24*%
%IPPOS*%
%LPD*%
%AMOC8*
5,1,8,0,0,1.08239X$1,22.5*
%
%ADD10C,0.0000*%
%ADD11R,0.0355X0.0512*%
%ADD12C,0.0640*%
%ADD13R,0.0780X0.0780*%
%ADD14C,0.0780*%
%ADD15R,0.0257X0.0512*%
%ADD16R,0.0512X0.0355*%
%ADD17R,0.1044X0.1103*%
%ADD18R,0.0670X0.0500*%
%ADD19R,0.0670X0.0749*%
%ADD20OC8,0.0700*%
%ADD21C,0.0434*%
D10*
X000180Y000416D02*
X000180Y010496D01*
X016180Y010496D01*
X016180Y000416D01*
X000180Y000416D01*
X001517Y002330D02*
X001519Y002357D01*
X001525Y002384D01*
X001534Y002410D01*
X001547Y002434D01*
X001563Y002457D01*
X001582Y002476D01*
X001604Y002493D01*
X001628Y002507D01*
X001653Y002517D01*
X001680Y002524D01*
X001707Y002527D01*
X001735Y002526D01*
X001762Y002521D01*
X001788Y002513D01*
X001812Y002501D01*
X001835Y002485D01*
X001856Y002467D01*
X001873Y002446D01*
X001888Y002422D01*
X001899Y002397D01*
X001907Y002371D01*
X001911Y002344D01*
X001911Y002316D01*
X001907Y002289D01*
X001899Y002263D01*
X001888Y002238D01*
X001873Y002214D01*
X001856Y002193D01*
X001835Y002175D01*
X001813Y002159D01*
X001788Y002147D01*
X001762Y002139D01*
X001735Y002134D01*
X001707Y002133D01*
X001680Y002136D01*
X001653Y002143D01*
X001628Y002153D01*
X001604Y002167D01*
X001582Y002184D01*
X001563Y002203D01*
X001547Y002226D01*
X001534Y002250D01*
X001525Y002276D01*
X001519Y002303D01*
X001517Y002330D01*
X003249Y002330D02*
X003251Y002357D01*
X003257Y002384D01*
X003266Y002410D01*
X003279Y002434D01*
X003295Y002457D01*
X003314Y002476D01*
X003336Y002493D01*
X003360Y002507D01*
X003385Y002517D01*
X003412Y002524D01*
X003439Y002527D01*
X003467Y002526D01*
X003494Y002521D01*
X003520Y002513D01*
X003544Y002501D01*
X003567Y002485D01*
X003588Y002467D01*
X003605Y002446D01*
X003620Y002422D01*
X003631Y002397D01*
X003639Y002371D01*
X003643Y002344D01*
X003643Y002316D01*
X003639Y002289D01*
X003631Y002263D01*
X003620Y002238D01*
X003605Y002214D01*
X003588Y002193D01*
X003567Y002175D01*
X003545Y002159D01*
X003520Y002147D01*
X003494Y002139D01*
X003467Y002134D01*
X003439Y002133D01*
X003412Y002136D01*
X003385Y002143D01*
X003360Y002153D01*
X003336Y002167D01*
X003314Y002184D01*
X003295Y002203D01*
X003279Y002226D01*
X003266Y002250D01*
X003257Y002276D01*
X003251Y002303D01*
X003249Y002330D01*
D11*
X012686Y006626D03*
X013394Y006626D03*
X013394Y007576D03*
X012686Y007576D03*
X012686Y008356D03*
X013394Y008356D03*
X013394Y009066D03*
X012686Y009066D03*
D12*
X001900Y009636D02*
X001300Y009636D01*
X001200Y008636D02*
X001800Y008636D01*
X001900Y007636D02*
X001300Y007636D01*
X001200Y006636D02*
X001800Y006636D01*
D13*
X001220Y005296D03*
X005600Y001616D03*
X015150Y009116D03*
D14*
X015050Y008116D03*
X015150Y007116D03*
X015050Y006116D03*
X015150Y005116D03*
X015050Y004116D03*
X015150Y003116D03*
X015050Y002116D03*
X005600Y002616D03*
X005600Y003616D03*
X005600Y004616D03*
X004220Y005296D03*
X003220Y005296D03*
X002220Y005296D03*
D15*
X010766Y004628D03*
X011140Y004628D03*
X011514Y004628D03*
X011514Y003604D03*
X010766Y003604D03*
D16*
X006860Y003362D03*
X006860Y004070D03*
D17*
X008432Y006456D03*
X010928Y006456D03*
D18*
X008140Y004696D03*
X008140Y004096D03*
X008140Y003496D03*
D19*
X007031Y006036D03*
X005929Y006036D03*
X005929Y007076D03*
X007031Y007076D03*
X007031Y008116D03*
X005929Y008116D03*
D20*
X003885Y007631D03*
X002885Y007631D03*
X002885Y008631D03*
X003885Y008631D03*
X003885Y009631D03*
X002885Y009631D03*
X002885Y006631D03*
X003885Y006631D03*
D21*
X003446Y002330D03*
X001714Y002330D03*
M02*
