%
M48
M72
T01C0.0236
T02C0.0394
T03C0.0400
%
T01
X7060Y1536
X7140Y4736
X4660Y6496
X4660Y8816
X9470Y6926
X10660Y5536
X11620Y5456
X12980Y4656
X14180Y5936
X12060Y7056
X9940Y8496
X9620Y10016
T02
X1714Y2330
X3446Y2330
T03
X5600Y2616
X5600Y1616
X5600Y3616
X5600Y4616
X4220Y5296
X3220Y5296
X2220Y5296
X1220Y5296
X1500Y6636
X2885Y6631
X3885Y6631
X3885Y7631
X2885Y7631
X1600Y7636
X1500Y8636
X2885Y8631
X3885Y8631
X3885Y9631
X2885Y9631
X1600Y9636
X15050Y8116
X15150Y9116
X15150Y7116
X15050Y6116
X15150Y5116
X15050Y4116
X15150Y3116
X15050Y2116
M30
