G75*
G70*
%OFA0B0*%
%FSLAX24Y24*%
%IPPOS*%
%LPD*%
%AMOC8*
5,1,8,0,0,1.08239X$1,22.5*
%
%ADD10C,0.0000*%
%ADD11R,0.0315X0.0472*%
%ADD12C,0.0600*%
%ADD13R,0.0740X0.0740*%
%ADD14C,0.0740*%
%ADD15R,0.0217X0.0472*%
%ADD16R,0.0472X0.0315*%
%ADD17R,0.1004X0.1063*%
%ADD18R,0.0630X0.0460*%
%ADD19R,0.0630X0.0709*%
%ADD20OC8,0.0660*%
%ADD21R,0.0356X0.0356*%
%ADD22C,0.0160*%
%ADD23C,0.0320*%
%ADD24C,0.0120*%
%ADD25C,0.0500*%
%ADD26C,0.0100*%
D10*
X000180Y000416D02*
X000180Y010496D01*
X016180Y010496D01*
X016180Y000416D01*
X000180Y000416D01*
X001517Y002330D02*
X001519Y002357D01*
X001525Y002384D01*
X001534Y002410D01*
X001547Y002434D01*
X001563Y002457D01*
X001582Y002476D01*
X001604Y002493D01*
X001628Y002507D01*
X001653Y002517D01*
X001680Y002524D01*
X001707Y002527D01*
X001735Y002526D01*
X001762Y002521D01*
X001788Y002513D01*
X001812Y002501D01*
X001835Y002485D01*
X001856Y002467D01*
X001873Y002446D01*
X001888Y002422D01*
X001899Y002397D01*
X001907Y002371D01*
X001911Y002344D01*
X001911Y002316D01*
X001907Y002289D01*
X001899Y002263D01*
X001888Y002238D01*
X001873Y002214D01*
X001856Y002193D01*
X001835Y002175D01*
X001813Y002159D01*
X001788Y002147D01*
X001762Y002139D01*
X001735Y002134D01*
X001707Y002133D01*
X001680Y002136D01*
X001653Y002143D01*
X001628Y002153D01*
X001604Y002167D01*
X001582Y002184D01*
X001563Y002203D01*
X001547Y002226D01*
X001534Y002250D01*
X001525Y002276D01*
X001519Y002303D01*
X001517Y002330D01*
X003249Y002330D02*
X003251Y002357D01*
X003257Y002384D01*
X003266Y002410D01*
X003279Y002434D01*
X003295Y002457D01*
X003314Y002476D01*
X003336Y002493D01*
X003360Y002507D01*
X003385Y002517D01*
X003412Y002524D01*
X003439Y002527D01*
X003467Y002526D01*
X003494Y002521D01*
X003520Y002513D01*
X003544Y002501D01*
X003567Y002485D01*
X003588Y002467D01*
X003605Y002446D01*
X003620Y002422D01*
X003631Y002397D01*
X003639Y002371D01*
X003643Y002344D01*
X003643Y002316D01*
X003639Y002289D01*
X003631Y002263D01*
X003620Y002238D01*
X003605Y002214D01*
X003588Y002193D01*
X003567Y002175D01*
X003545Y002159D01*
X003520Y002147D01*
X003494Y002139D01*
X003467Y002134D01*
X003439Y002133D01*
X003412Y002136D01*
X003385Y002143D01*
X003360Y002153D01*
X003336Y002167D01*
X003314Y002184D01*
X003295Y002203D01*
X003279Y002226D01*
X003266Y002250D01*
X003257Y002276D01*
X003251Y002303D01*
X003249Y002330D01*
D11*
X012686Y006626D03*
X013394Y006626D03*
X013394Y007576D03*
X012686Y007576D03*
X012686Y008356D03*
X013394Y008356D03*
X013394Y009066D03*
X012686Y009066D03*
D12*
X001900Y009636D02*
X001300Y009636D01*
X001200Y008636D02*
X001800Y008636D01*
X001900Y007636D02*
X001300Y007636D01*
X001200Y006636D02*
X001800Y006636D01*
D13*
X001220Y005296D03*
X005600Y001616D03*
X015150Y009116D03*
D14*
X015050Y008116D03*
X015150Y007116D03*
X015050Y006116D03*
X015150Y005116D03*
X015050Y004116D03*
X015150Y003116D03*
X015050Y002116D03*
X005600Y002616D03*
X005600Y003616D03*
X005600Y004616D03*
X004220Y005296D03*
X003220Y005296D03*
X002220Y005296D03*
D15*
X010766Y004628D03*
X011140Y004628D03*
X011514Y004628D03*
X011514Y003604D03*
X010766Y003604D03*
D16*
X006860Y003362D03*
X006860Y004070D03*
D17*
X008432Y006456D03*
X010928Y006456D03*
D18*
X008140Y004696D03*
X008140Y004096D03*
X008140Y003496D03*
D19*
X007031Y006036D03*
X005929Y006036D03*
X005929Y007076D03*
X007031Y007076D03*
X007031Y008116D03*
X005929Y008116D03*
D20*
X003885Y007631D03*
X002885Y007631D03*
X002885Y008631D03*
X003885Y008631D03*
X003885Y009631D03*
X002885Y009631D03*
X002885Y006631D03*
X003885Y006631D03*
D21*
X004660Y006496D03*
X007140Y004736D03*
X009470Y006926D03*
X010660Y005536D03*
X011620Y005456D03*
X012980Y004656D03*
X014180Y005936D03*
X012060Y007056D03*
X009940Y008496D03*
X009620Y010016D03*
X004660Y008816D03*
X007060Y001536D03*
D22*
X006665Y001367D02*
X006150Y001367D01*
X006150Y001222D02*
X006150Y001596D01*
X005620Y001596D01*
X005620Y001066D01*
X005994Y001066D01*
X006039Y001078D01*
X006081Y001102D01*
X006114Y001136D01*
X006138Y001177D01*
X006150Y001222D01*
X006146Y001209D02*
X006777Y001209D01*
X006807Y001178D02*
X006810Y001178D01*
X006816Y001171D01*
X006974Y001106D01*
X014556Y001106D01*
X014714Y001171D01*
X015108Y001566D01*
X015159Y001566D01*
X015362Y001650D01*
X015516Y001804D01*
X015600Y002007D01*
X015600Y002225D01*
X015516Y002428D01*
X015362Y002582D01*
X015330Y002595D01*
X015462Y002650D01*
X015616Y002804D01*
X015700Y003007D01*
X015700Y003225D01*
X015616Y003428D01*
X015462Y003582D01*
X015325Y003639D01*
X015338Y003646D01*
X015408Y003697D01*
X015470Y003758D01*
X015520Y003828D01*
X015560Y003905D01*
X015586Y003987D01*
X015600Y004073D01*
X015600Y004096D01*
X015070Y004096D01*
X015070Y004136D01*
X015600Y004136D01*
X015600Y004159D01*
X015586Y004245D01*
X015560Y004327D01*
X015520Y004404D01*
X015470Y004474D01*
X015408Y004536D01*
X015338Y004586D01*
X015325Y004593D01*
X015462Y004650D01*
X015616Y004804D01*
X015700Y005007D01*
X015700Y005225D01*
X015616Y005428D01*
X015462Y005582D01*
X015330Y005637D01*
X015362Y005650D01*
X015516Y005804D01*
X015600Y006007D01*
X015600Y006225D01*
X015516Y006428D01*
X015362Y006582D01*
X015330Y006595D01*
X015462Y006650D01*
X015616Y006804D01*
X015700Y007007D01*
X015700Y007225D01*
X015616Y007428D01*
X015462Y007582D01*
X015330Y007637D01*
X015362Y007650D01*
X015516Y007804D01*
X015600Y008007D01*
X015600Y008225D01*
X015516Y008428D01*
X015378Y008566D01*
X015595Y008566D01*
X015700Y008671D01*
X015700Y009561D01*
X015595Y009666D01*
X014705Y009666D01*
X014600Y009561D01*
X014600Y009316D01*
X014528Y009316D01*
X014433Y009276D01*
X014360Y009203D01*
X014200Y009043D01*
X014160Y008948D01*
X014160Y008044D01*
X013732Y007616D01*
X013732Y007836D01*
X013720Y007882D01*
X013696Y007923D01*
X013662Y007956D01*
X013645Y007966D01*
X013662Y007976D01*
X013696Y008009D01*
X013720Y008050D01*
X013732Y008096D01*
X013732Y008356D01*
X013394Y008356D01*
X013057Y008356D01*
X013057Y008096D01*
X013069Y008050D01*
X013093Y008009D01*
X013126Y007976D01*
X013143Y007966D01*
X013126Y007956D01*
X013093Y007923D01*
X013069Y007882D01*
X013057Y007836D01*
X013057Y007576D01*
X013057Y007316D01*
X013069Y007270D01*
X013093Y007229D01*
X013126Y007196D01*
X013167Y007172D01*
X013213Y007160D01*
X013394Y007160D01*
X013394Y007576D01*
X013057Y007576D01*
X013394Y007576D01*
X013394Y007576D01*
X013394Y007576D01*
X013394Y007992D01*
X013394Y008356D01*
X013394Y008356D01*
X013057Y008356D01*
X013057Y008616D01*
X013069Y008662D01*
X013093Y008703D01*
X013101Y008711D01*
X013057Y008755D01*
X013057Y009374D01*
X013010Y009373D01*
X013011Y009372D01*
X013023Y009326D01*
X013023Y009066D01*
X012686Y009066D01*
X012686Y009066D01*
X013023Y009066D01*
X013023Y008806D01*
X013011Y008760D01*
X012987Y008719D01*
X012979Y008711D01*
X013023Y008667D01*
X013023Y008494D01*
X013026Y008488D01*
X013026Y008446D01*
X013030Y008418D01*
X013040Y008394D01*
X013040Y008352D01*
X013046Y008310D01*
X013040Y008285D01*
X013040Y007712D01*
X013046Y007686D01*
X013040Y007645D01*
X013040Y007603D01*
X013030Y007578D01*
X013026Y007550D01*
X013026Y006558D01*
X013023Y006552D01*
X013023Y006315D01*
X012918Y006210D01*
X012454Y006210D01*
X012348Y006315D01*
X012348Y006552D01*
X012346Y006558D01*
X012346Y006731D01*
X012313Y006698D01*
X011807Y006698D01*
X011702Y006803D01*
X011702Y007309D01*
X011807Y007414D01*
X012050Y007414D01*
X012348Y007712D01*
X012348Y007887D01*
X012360Y007899D01*
X012360Y008033D01*
X012348Y008045D01*
X012348Y008282D01*
X012346Y008288D01*
X012346Y008395D01*
X012339Y008436D01*
X012346Y008462D01*
X012346Y008488D01*
X012348Y008494D01*
X012348Y008667D01*
X012392Y008711D01*
X012384Y008719D01*
X012360Y008760D01*
X012348Y008806D01*
X012348Y009066D01*
X012686Y009066D01*
X012686Y009066D01*
X012348Y009066D01*
X012348Y009326D01*
X012358Y009361D01*
X012232Y009358D01*
X011848Y008846D01*
X011840Y008829D01*
X011817Y008805D01*
X011797Y008779D01*
X011781Y008769D01*
X011767Y008756D01*
X011737Y008743D01*
X011708Y008726D01*
X011689Y008723D01*
X011672Y008716D01*
X011638Y008716D01*
X011606Y008711D01*
X011587Y008716D01*
X010528Y008716D01*
X010433Y008756D01*
X010360Y008829D01*
X010312Y008876D01*
X009648Y008876D01*
X009553Y008916D01*
X009480Y008989D01*
X009400Y009069D01*
X009360Y009164D01*
X009360Y009665D01*
X009262Y009763D01*
X009262Y010269D01*
X009309Y010316D01*
X000360Y010316D01*
X000360Y000596D01*
X016000Y000596D01*
X016000Y010316D01*
X009931Y010316D01*
X009978Y010269D01*
X009978Y009763D01*
X009880Y009665D01*
X009880Y009396D01*
X010472Y009396D01*
X010567Y009356D01*
X010688Y009236D01*
X011490Y009236D01*
X011871Y009744D01*
X011877Y009759D01*
X011902Y009785D01*
X011923Y009813D01*
X011937Y009822D01*
X011949Y009834D01*
X011981Y009848D01*
X012012Y009866D01*
X012028Y009868D01*
X012043Y009875D01*
X012079Y009876D01*
X012114Y009881D01*
X012130Y009877D01*
X013374Y009900D01*
X013425Y009902D01*
X013426Y009901D01*
X013427Y009901D01*
X013474Y009883D01*
X013522Y009864D01*
X013522Y009864D01*
X013523Y009864D01*
X013560Y009828D01*
X013597Y009793D01*
X013597Y009792D01*
X013598Y009792D01*
X013618Y009745D01*
X013639Y009699D01*
X013639Y009698D01*
X013639Y009697D01*
X013640Y009646D01*
X013644Y009464D01*
X013732Y009377D01*
X013732Y008755D01*
X013688Y008711D01*
X013696Y008703D01*
X013720Y008662D01*
X013732Y008616D01*
X013732Y008356D01*
X013394Y008356D01*
X013394Y008356D01*
X013394Y007576D01*
X013394Y007576D01*
X013394Y007160D01*
X013576Y007160D01*
X013600Y007166D01*
X013600Y007036D01*
X013576Y007042D01*
X013394Y007042D01*
X013213Y007042D01*
X013167Y007030D01*
X013126Y007006D01*
X013093Y006973D01*
X013069Y006932D01*
X013057Y006886D01*
X013057Y006626D01*
X013057Y006366D01*
X013069Y006320D01*
X013093Y006279D01*
X013126Y006246D01*
X013167Y006222D01*
X013213Y006210D01*
X013286Y006210D01*
X012792Y005716D01*
X011971Y005716D01*
X011873Y005814D01*
X011574Y005814D01*
X011598Y005855D01*
X011610Y005901D01*
X011610Y006376D01*
X011008Y006376D01*
X011008Y005745D01*
X011298Y005745D01*
X011262Y005709D01*
X011262Y005203D01*
X011367Y005098D01*
X011873Y005098D01*
X011971Y005196D01*
X012952Y005196D01*
X013047Y005236D01*
X013822Y006010D01*
X013822Y005683D01*
X013927Y005578D01*
X014433Y005578D01*
X014538Y005683D01*
X014538Y005915D01*
X014584Y005804D01*
X014738Y005650D01*
X014870Y005595D01*
X014838Y005582D01*
X014684Y005428D01*
X014600Y005225D01*
X014600Y005007D01*
X014684Y004804D01*
X014838Y004650D01*
X014871Y004636D01*
X014839Y004626D01*
X014762Y004586D01*
X014692Y004536D01*
X014630Y004474D01*
X014580Y004404D01*
X014540Y004327D01*
X014514Y004245D01*
X014500Y004159D01*
X014500Y004136D01*
X015030Y004136D01*
X015030Y004096D01*
X014500Y004096D01*
X014500Y004073D01*
X014514Y003987D01*
X014540Y003905D01*
X014580Y003828D01*
X014630Y003758D01*
X014692Y003697D01*
X014762Y003646D01*
X014839Y003606D01*
X014871Y003596D01*
X014838Y003582D01*
X014684Y003428D01*
X014600Y003225D01*
X014600Y003007D01*
X014684Y002804D01*
X014838Y002650D01*
X014870Y002637D01*
X014738Y002582D01*
X014584Y002428D01*
X014500Y002225D01*
X014500Y002174D01*
X014292Y001966D01*
X006974Y001966D01*
X006816Y001901D01*
X006810Y001894D01*
X006807Y001894D01*
X006702Y001789D01*
X006702Y001786D01*
X006695Y001780D01*
X006630Y001622D01*
X006630Y001450D01*
X006695Y001292D01*
X006702Y001286D01*
X006702Y001283D01*
X006807Y001178D01*
X006630Y001526D02*
X006150Y001526D01*
X006150Y001636D02*
X006150Y002010D01*
X006138Y002056D01*
X006114Y002097D01*
X006081Y002130D01*
X006039Y002154D01*
X005994Y002166D01*
X005928Y002166D01*
X006066Y002304D01*
X006150Y002507D01*
X006150Y002725D01*
X006066Y002928D01*
X005912Y003082D01*
X005830Y003116D01*
X005912Y003150D01*
X006066Y003304D01*
X006150Y003507D01*
X006150Y003547D01*
X006204Y003493D01*
X006404Y003293D01*
X006444Y003276D01*
X006444Y003130D01*
X006549Y003024D01*
X007171Y003024D01*
X007276Y003130D01*
X007276Y003236D01*
X007645Y003236D01*
X007645Y003191D01*
X007750Y003086D01*
X008530Y003086D01*
X008635Y003191D01*
X008635Y003344D01*
X010478Y003344D01*
X010478Y003293D01*
X010583Y003188D01*
X010949Y003188D01*
X011054Y003293D01*
X011054Y003836D01*
X011226Y003836D01*
X011226Y003293D01*
X011331Y003188D01*
X011697Y003188D01*
X011802Y003293D01*
X011802Y003915D01*
X011724Y003993D01*
X011760Y004029D01*
X011800Y004124D01*
X011800Y004315D01*
X011802Y004317D01*
X011802Y004939D01*
X011697Y005044D01*
X011331Y005044D01*
X011318Y005031D01*
X011318Y005032D01*
X011272Y005044D01*
X011140Y005044D01*
X011008Y005044D01*
X010962Y005032D01*
X010962Y005031D01*
X010949Y005044D01*
X010583Y005044D01*
X010478Y004939D01*
X010478Y004888D01*
X008635Y004888D01*
X008635Y005001D01*
X008530Y005106D01*
X008400Y005106D01*
X008400Y005745D01*
X009008Y005745D01*
X009114Y005850D01*
X009114Y007062D01*
X009008Y007168D01*
X007855Y007168D01*
X007750Y007062D01*
X007750Y005850D01*
X007855Y005745D01*
X007880Y005745D01*
X007880Y005106D01*
X007750Y005106D01*
X007645Y005001D01*
X007645Y004599D01*
X007498Y004746D01*
X007498Y004989D01*
X007393Y005094D01*
X007099Y005094D01*
X007173Y005168D01*
X007268Y005263D01*
X007320Y005388D01*
X007320Y005502D01*
X007421Y005502D01*
X007526Y005607D01*
X007526Y006465D01*
X007435Y006556D01*
X007526Y006647D01*
X007526Y007505D01*
X007435Y007596D01*
X007526Y007687D01*
X007526Y008545D01*
X007421Y008650D01*
X006642Y008650D01*
X006536Y008545D01*
X006536Y007687D01*
X006627Y007596D01*
X006536Y007505D01*
X006536Y006647D01*
X006627Y006556D01*
X006536Y006465D01*
X006536Y005607D01*
X006593Y005550D01*
X006212Y005169D01*
X006200Y005140D01*
X006200Y005502D01*
X006318Y005502D01*
X006424Y005607D01*
X006424Y006465D01*
X006333Y006556D01*
X006424Y006647D01*
X006424Y007505D01*
X006333Y007596D01*
X006424Y007687D01*
X006424Y008545D01*
X006318Y008650D01*
X005539Y008650D01*
X005434Y008545D01*
X005434Y008356D01*
X005272Y008356D01*
X005184Y008319D01*
X005117Y008252D01*
X005004Y008139D01*
X004937Y008072D01*
X004920Y008032D01*
X004920Y008465D01*
X005018Y008563D01*
X005018Y009069D01*
X004913Y009174D01*
X004407Y009174D01*
X004302Y009069D01*
X004302Y008935D01*
X004106Y009131D01*
X004395Y009419D01*
X004395Y009611D01*
X003905Y009611D01*
X003905Y009651D01*
X003865Y009651D01*
X003865Y010141D01*
X003674Y010141D01*
X003385Y009852D01*
X003096Y010141D01*
X002905Y010141D01*
X002905Y009651D01*
X002865Y009651D01*
X002865Y010141D01*
X002674Y010141D01*
X002375Y009842D01*
X002375Y009705D01*
X002368Y009748D01*
X002345Y009820D01*
X002311Y009888D01*
X002266Y009949D01*
X002213Y010002D01*
X002152Y010047D01*
X002084Y010081D01*
X002012Y010104D01*
X001938Y010116D01*
X001620Y010116D01*
X001620Y009656D01*
X002375Y009656D01*
X002375Y009651D01*
X002865Y009651D01*
X002865Y009611D01*
X002380Y009611D01*
X002380Y009616D01*
X001620Y009616D01*
X001620Y009156D01*
X001938Y009156D01*
X002012Y009168D01*
X002084Y009191D01*
X002152Y009225D01*
X002213Y009270D01*
X002266Y009323D01*
X002311Y009384D01*
X002345Y009452D01*
X002368Y009524D01*
X002375Y009567D01*
X002375Y009419D01*
X002664Y009131D01*
X002375Y008842D01*
X002375Y008419D01*
X002664Y008131D01*
X002375Y007842D01*
X002375Y007743D01*
X002307Y007908D01*
X002172Y008043D01*
X001995Y008116D01*
X001205Y008116D01*
X001028Y008043D01*
X000893Y007908D01*
X000820Y007732D01*
X000820Y007541D01*
X000893Y007364D01*
X001028Y007229D01*
X001205Y007156D01*
X001995Y007156D01*
X002172Y007229D01*
X002307Y007364D01*
X002375Y007529D01*
X002375Y007419D01*
X002664Y007131D01*
X002375Y006842D01*
X002375Y006419D01*
X002674Y006121D01*
X003096Y006121D01*
X003385Y006409D01*
X003674Y006121D01*
X004096Y006121D01*
X004302Y006326D01*
X004302Y006243D01*
X004407Y006138D01*
X004900Y006138D01*
X004900Y005475D01*
X004770Y005345D01*
X004770Y005405D01*
X004686Y005608D01*
X004532Y005762D01*
X004329Y005846D01*
X004111Y005846D01*
X003908Y005762D01*
X003754Y005608D01*
X003720Y005526D01*
X003686Y005608D01*
X003532Y005762D01*
X003329Y005846D01*
X003111Y005846D01*
X002908Y005762D01*
X002754Y005608D01*
X002720Y005526D01*
X002686Y005608D01*
X002532Y005762D01*
X002329Y005846D01*
X002111Y005846D01*
X001908Y005762D01*
X001770Y005624D01*
X001770Y005741D01*
X001665Y005846D01*
X000775Y005846D01*
X000670Y005741D01*
X000670Y004851D01*
X000775Y004746D01*
X001665Y004746D01*
X001770Y004851D01*
X001770Y004968D01*
X001908Y004830D01*
X002111Y004746D01*
X002329Y004746D01*
X002532Y004830D01*
X002686Y004984D01*
X002720Y005066D01*
X002754Y004984D01*
X002908Y004830D01*
X003111Y004746D01*
X003329Y004746D01*
X003532Y004830D01*
X003686Y004984D01*
X003720Y005066D01*
X003754Y004984D01*
X003908Y004830D01*
X004092Y004754D01*
X004080Y004724D01*
X004080Y002748D01*
X004132Y002623D01*
X004452Y002303D01*
X004547Y002208D01*
X004672Y002156D01*
X005169Y002156D01*
X005161Y002154D01*
X005119Y002130D01*
X005086Y002097D01*
X005062Y002056D01*
X005050Y002010D01*
X005050Y001636D01*
X005580Y001636D01*
X005580Y001596D01*
X005620Y001596D01*
X005620Y001636D01*
X006150Y001636D01*
X006150Y001684D02*
X006656Y001684D01*
X006756Y001843D02*
X006150Y001843D01*
X006150Y002001D02*
X014327Y002001D01*
X014485Y002160D02*
X006018Y002160D01*
X006072Y002318D02*
X014538Y002318D01*
X014633Y002477D02*
X006138Y002477D01*
X006150Y002635D02*
X014866Y002635D01*
X014695Y002794D02*
X006122Y002794D01*
X006042Y002952D02*
X014623Y002952D01*
X014600Y003111D02*
X008554Y003111D01*
X008635Y003269D02*
X010502Y003269D01*
X010766Y003604D02*
X008248Y003604D01*
X008140Y003496D01*
X006994Y003496D01*
X006860Y003362D01*
X006444Y003269D02*
X006031Y003269D01*
X005843Y003111D02*
X006463Y003111D01*
X006269Y003428D02*
X006117Y003428D01*
X006100Y003846D02*
X006066Y003928D01*
X005912Y004082D01*
X005830Y004116D01*
X005912Y004150D01*
X006066Y004304D01*
X006150Y004507D01*
X006150Y004725D01*
X006076Y004904D01*
X006087Y004916D01*
X006160Y004988D01*
X006160Y004908D01*
X006160Y004495D01*
X006137Y004472D01*
X006100Y004384D01*
X006100Y003846D01*
X006100Y003903D02*
X006076Y003903D01*
X006100Y004062D02*
X005932Y004062D01*
X005982Y004220D02*
X006100Y004220D01*
X006097Y004379D02*
X006100Y004379D01*
X006150Y004537D02*
X006160Y004537D01*
X006150Y004696D02*
X006160Y004696D01*
X006160Y004854D02*
X006097Y004854D01*
X005940Y005136D02*
X005940Y006025D01*
X005929Y006036D01*
X006424Y005964D02*
X006536Y005964D01*
X006536Y005805D02*
X006424Y005805D01*
X006424Y005647D02*
X006536Y005647D01*
X006531Y005488D02*
X006200Y005488D01*
X006200Y005330D02*
X006373Y005330D01*
X006214Y005171D02*
X006200Y005171D01*
X005940Y005136D02*
X005600Y004796D01*
X005600Y004616D01*
X005610Y005174D02*
X005610Y005502D01*
X005680Y005502D01*
X005680Y005244D01*
X005610Y005174D01*
X005610Y005330D02*
X005680Y005330D01*
X005680Y005488D02*
X005610Y005488D01*
X004900Y005488D02*
X004736Y005488D01*
X004647Y005647D02*
X004900Y005647D01*
X004900Y005805D02*
X004428Y005805D01*
X004900Y005964D02*
X000360Y005964D01*
X000360Y005805D02*
X000734Y005805D01*
X000670Y005647D02*
X000360Y005647D01*
X000360Y005488D02*
X000670Y005488D01*
X000670Y005330D02*
X000360Y005330D01*
X000360Y005171D02*
X000670Y005171D01*
X000670Y005013D02*
X000360Y005013D01*
X000360Y004854D02*
X000670Y004854D01*
X000360Y004696D02*
X004080Y004696D01*
X004080Y004537D02*
X000360Y004537D01*
X000360Y004379D02*
X004080Y004379D01*
X004080Y004220D02*
X000360Y004220D01*
X000360Y004062D02*
X004080Y004062D01*
X004080Y003903D02*
X000360Y003903D01*
X000360Y003745D02*
X004080Y003745D01*
X004080Y003586D02*
X000360Y003586D01*
X000360Y003428D02*
X004080Y003428D01*
X004080Y003269D02*
X000360Y003269D01*
X000360Y003111D02*
X004080Y003111D01*
X004080Y002952D02*
X000360Y002952D01*
X000360Y002794D02*
X004080Y002794D01*
X004127Y002635D02*
X003674Y002635D01*
X003660Y002649D02*
X003521Y002707D01*
X003371Y002707D01*
X003233Y002649D01*
X003127Y002543D01*
X003069Y002405D01*
X003069Y002255D01*
X003127Y002116D01*
X003233Y002010D01*
X003371Y001953D01*
X003521Y001953D01*
X003660Y002010D01*
X003766Y002116D01*
X003823Y002255D01*
X003823Y002405D01*
X003766Y002543D01*
X003660Y002649D01*
X003793Y002477D02*
X004279Y002477D01*
X004437Y002318D02*
X003823Y002318D01*
X003784Y002160D02*
X004664Y002160D01*
X005050Y002001D02*
X003637Y002001D01*
X003255Y002001D02*
X001905Y002001D01*
X001927Y002010D02*
X002033Y002116D01*
X002091Y002255D01*
X002091Y002405D01*
X002033Y002543D01*
X001927Y002649D01*
X001789Y002707D01*
X001639Y002707D01*
X001500Y002649D01*
X001394Y002543D01*
X001337Y002405D01*
X001337Y002255D01*
X001394Y002116D01*
X001500Y002010D01*
X001639Y001953D01*
X001789Y001953D01*
X001927Y002010D01*
X002051Y002160D02*
X003109Y002160D01*
X003069Y002318D02*
X002091Y002318D01*
X002061Y002477D02*
X003099Y002477D01*
X003218Y002635D02*
X001942Y002635D01*
X001486Y002635D02*
X000360Y002635D01*
X000360Y002477D02*
X001367Y002477D01*
X001337Y002318D02*
X000360Y002318D01*
X000360Y002160D02*
X001376Y002160D01*
X001523Y002001D02*
X000360Y002001D01*
X000360Y001843D02*
X005050Y001843D01*
X005050Y001684D02*
X000360Y001684D01*
X000360Y001526D02*
X005050Y001526D01*
X005050Y001596D02*
X005050Y001222D01*
X005062Y001177D01*
X005086Y001136D01*
X005119Y001102D01*
X005161Y001078D01*
X005206Y001066D01*
X005580Y001066D01*
X005580Y001596D01*
X005050Y001596D01*
X005050Y001367D02*
X000360Y001367D01*
X000360Y001209D02*
X005054Y001209D01*
X005580Y001209D02*
X005620Y001209D01*
X005620Y001367D02*
X005580Y001367D01*
X005580Y001526D02*
X005620Y001526D01*
X005096Y002836D02*
X004881Y002836D01*
X004760Y002957D01*
X004760Y003975D01*
X005050Y003685D01*
X005050Y003507D01*
X005134Y003304D01*
X005288Y003150D01*
X005370Y003116D01*
X005288Y003082D01*
X005134Y002928D01*
X005096Y002836D01*
X005158Y002952D02*
X004765Y002952D01*
X004760Y003111D02*
X005357Y003111D01*
X005169Y003269D02*
X004760Y003269D01*
X004760Y003428D02*
X005083Y003428D01*
X005050Y003586D02*
X004760Y003586D01*
X004760Y003745D02*
X004991Y003745D01*
X004832Y003903D02*
X004760Y003903D01*
X003884Y004854D02*
X003556Y004854D01*
X003698Y005013D02*
X003742Y005013D01*
X002884Y004854D02*
X002556Y004854D01*
X002698Y005013D02*
X002742Y005013D01*
X001884Y004854D02*
X001770Y004854D01*
X001770Y005647D02*
X001793Y005647D01*
X001706Y005805D02*
X002012Y005805D01*
X002428Y005805D02*
X003012Y005805D01*
X002793Y005647D02*
X002647Y005647D01*
X003428Y005805D02*
X004012Y005805D01*
X003793Y005647D02*
X003647Y005647D01*
X003672Y006122D02*
X003098Y006122D01*
X003256Y006281D02*
X003514Y006281D01*
X004098Y006122D02*
X004900Y006122D01*
X004660Y006496D02*
X004660Y008816D01*
X005018Y008817D02*
X010372Y008817D01*
X010580Y008976D02*
X011620Y008976D01*
X012100Y009616D01*
X013380Y009640D01*
X013394Y009066D01*
X013057Y009134D02*
X013023Y009134D01*
X013023Y008975D02*
X013057Y008975D01*
X013057Y008817D02*
X013023Y008817D01*
X013023Y008658D02*
X013068Y008658D01*
X013057Y008500D02*
X013023Y008500D01*
X013042Y008341D02*
X013057Y008341D01*
X013040Y008183D02*
X013057Y008183D01*
X013040Y008024D02*
X013084Y008024D01*
X013065Y007866D02*
X013040Y007866D01*
X013041Y007707D02*
X013057Y007707D01*
X013057Y007549D02*
X013026Y007549D01*
X013026Y007390D02*
X013057Y007390D01*
X013026Y007232D02*
X013092Y007232D01*
X013026Y007073D02*
X013600Y007073D01*
X013394Y007042D02*
X013394Y006626D01*
X013057Y006626D01*
X013394Y006626D01*
X013394Y006626D01*
X013394Y007042D01*
X013394Y006915D02*
X013394Y006915D01*
X013394Y006756D02*
X013394Y006756D01*
X013394Y006626D02*
X013394Y006626D01*
X013057Y006598D02*
X013026Y006598D01*
X013023Y006439D02*
X013057Y006439D01*
X013092Y006281D02*
X012988Y006281D01*
X013198Y006122D02*
X011610Y006122D01*
X011610Y006281D02*
X012383Y006281D01*
X012348Y006439D02*
X011008Y006439D01*
X011008Y006376D02*
X011008Y006536D01*
X010848Y006536D01*
X010848Y006376D01*
X010246Y006376D01*
X010246Y005901D01*
X010258Y005855D01*
X010282Y005814D01*
X010316Y005780D01*
X010357Y005757D01*
X010402Y005745D01*
X010848Y005745D01*
X010848Y006376D01*
X011008Y006376D01*
X011008Y006281D02*
X010848Y006281D01*
X010848Y006122D02*
X011008Y006122D01*
X011008Y005964D02*
X010848Y005964D01*
X010848Y005805D02*
X011008Y005805D01*
X011262Y005647D02*
X008400Y005647D01*
X008400Y005488D02*
X011262Y005488D01*
X011262Y005330D02*
X008400Y005330D01*
X008400Y005171D02*
X011294Y005171D01*
X011140Y005044D02*
X011140Y004628D01*
X011140Y005044D01*
X011140Y005013D02*
X011140Y005013D01*
X011140Y004854D02*
X011140Y004854D01*
X011140Y004696D02*
X011140Y004696D01*
X011140Y004628D02*
X011140Y004628D01*
X011140Y006884D01*
X010928Y006456D01*
X010848Y006439D02*
X009114Y006439D01*
X009114Y006598D02*
X010246Y006598D01*
X010246Y006536D02*
X010848Y006536D01*
X010848Y007168D01*
X010402Y007168D01*
X010357Y007155D01*
X010316Y007132D01*
X010282Y007098D01*
X010258Y007057D01*
X010246Y007011D01*
X010246Y006536D01*
X010246Y006756D02*
X009114Y006756D01*
X009114Y006915D02*
X010246Y006915D01*
X010268Y007073D02*
X009103Y007073D01*
X008432Y006456D02*
X008140Y006644D01*
X008140Y004696D01*
X008208Y004628D01*
X010766Y004628D01*
X010766Y004150D01*
X010820Y004096D01*
X011460Y004096D01*
X011540Y004176D01*
X011540Y004602D01*
X011514Y004628D01*
X011802Y004696D02*
X014793Y004696D01*
X014694Y004537D02*
X011802Y004537D01*
X011802Y004379D02*
X014566Y004379D01*
X014510Y004220D02*
X011800Y004220D01*
X011774Y004062D02*
X014502Y004062D01*
X014541Y003903D02*
X011802Y003903D01*
X011802Y003745D02*
X014644Y003745D01*
X014847Y003586D02*
X011802Y003586D01*
X011802Y003428D02*
X014684Y003428D01*
X014618Y003269D02*
X011778Y003269D01*
X011250Y003269D02*
X011030Y003269D01*
X011054Y003428D02*
X011226Y003428D01*
X011226Y003586D02*
X011054Y003586D01*
X011054Y003745D02*
X011226Y003745D01*
X010556Y003993D02*
X010478Y003915D01*
X010478Y003864D01*
X008635Y003864D01*
X008635Y004368D01*
X010478Y004368D01*
X010478Y004317D01*
X010506Y004289D01*
X010506Y004098D01*
X010546Y004003D01*
X010556Y003993D01*
X010521Y004062D02*
X008635Y004062D01*
X008635Y004220D02*
X010506Y004220D01*
X010478Y003903D02*
X008635Y003903D01*
X008140Y004096D02*
X007780Y004096D01*
X007140Y004736D01*
X007498Y004854D02*
X007645Y004854D01*
X007657Y005013D02*
X007474Y005013D01*
X007176Y005171D02*
X007880Y005171D01*
X007880Y005330D02*
X007296Y005330D01*
X007320Y005488D02*
X007880Y005488D01*
X007880Y005647D02*
X007526Y005647D01*
X007526Y005805D02*
X007795Y005805D01*
X007750Y005964D02*
X007526Y005964D01*
X007526Y006122D02*
X007750Y006122D01*
X007750Y006281D02*
X007526Y006281D01*
X007526Y006439D02*
X007750Y006439D01*
X007750Y006598D02*
X007477Y006598D01*
X007526Y006756D02*
X007750Y006756D01*
X007750Y006915D02*
X007526Y006915D01*
X007526Y007073D02*
X007761Y007073D01*
X007526Y007232D02*
X011702Y007232D01*
X011702Y007073D02*
X011588Y007073D01*
X011598Y007057D02*
X011574Y007098D01*
X011541Y007132D01*
X011499Y007155D01*
X011454Y007168D01*
X011008Y007168D01*
X011008Y006536D01*
X011610Y006536D01*
X011610Y007011D01*
X011598Y007057D01*
X011610Y006915D02*
X011702Y006915D01*
X011749Y006756D02*
X011610Y006756D01*
X011610Y006598D02*
X012346Y006598D01*
X013026Y006756D02*
X013057Y006756D01*
X013065Y006915D02*
X013026Y006915D01*
X013394Y007232D02*
X013394Y007232D01*
X013394Y007390D02*
X013394Y007390D01*
X013394Y007549D02*
X013394Y007549D01*
X013394Y007707D02*
X013394Y007707D01*
X013394Y007866D02*
X013394Y007866D01*
X013394Y008024D02*
X013394Y008024D01*
X013394Y008183D02*
X013394Y008183D01*
X013394Y008341D02*
X013394Y008341D01*
X013394Y008356D02*
X013394Y008356D01*
X013732Y008341D02*
X014160Y008341D01*
X014160Y008500D02*
X013732Y008500D01*
X013721Y008658D02*
X014160Y008658D01*
X014160Y008817D02*
X013732Y008817D01*
X013732Y008975D02*
X014171Y008975D01*
X014290Y009134D02*
X013732Y009134D01*
X013732Y009292D02*
X014470Y009292D01*
X014600Y009451D02*
X013658Y009451D01*
X013641Y009609D02*
X014648Y009609D01*
X015150Y009116D02*
X015090Y009056D01*
X014580Y009056D01*
X014420Y008896D01*
X014420Y007936D01*
X013860Y007376D01*
X013860Y006416D01*
X012900Y005456D01*
X011620Y005456D01*
X011946Y005171D02*
X014600Y005171D01*
X014643Y005330D02*
X013141Y005330D01*
X013300Y005488D02*
X014744Y005488D01*
X014746Y005647D02*
X014501Y005647D01*
X014538Y005805D02*
X014584Y005805D01*
X014180Y005936D02*
X014180Y007246D01*
X015050Y008116D01*
X015444Y008500D02*
X016000Y008500D01*
X016000Y008341D02*
X015552Y008341D01*
X015600Y008183D02*
X016000Y008183D01*
X016000Y008024D02*
X015600Y008024D01*
X015542Y007866D02*
X016000Y007866D01*
X016000Y007707D02*
X015419Y007707D01*
X015495Y007549D02*
X016000Y007549D01*
X016000Y007390D02*
X015632Y007390D01*
X015697Y007232D02*
X016000Y007232D01*
X016000Y007073D02*
X015700Y007073D01*
X015662Y006915D02*
X016000Y006915D01*
X016000Y006756D02*
X015568Y006756D01*
X015335Y006598D02*
X016000Y006598D01*
X016000Y006439D02*
X015505Y006439D01*
X015577Y006281D02*
X016000Y006281D01*
X016000Y006122D02*
X015600Y006122D01*
X015582Y005964D02*
X016000Y005964D01*
X016000Y005805D02*
X015516Y005805D01*
X015354Y005647D02*
X016000Y005647D01*
X016000Y005488D02*
X015556Y005488D01*
X015657Y005330D02*
X016000Y005330D01*
X016000Y005171D02*
X015700Y005171D01*
X015700Y005013D02*
X016000Y005013D01*
X016000Y004854D02*
X015637Y004854D01*
X015507Y004696D02*
X016000Y004696D01*
X016000Y004537D02*
X015406Y004537D01*
X015534Y004379D02*
X016000Y004379D01*
X016000Y004220D02*
X015590Y004220D01*
X015598Y004062D02*
X016000Y004062D01*
X016000Y003903D02*
X015559Y003903D01*
X015456Y003745D02*
X016000Y003745D01*
X016000Y003586D02*
X015453Y003586D01*
X015616Y003428D02*
X016000Y003428D01*
X016000Y003269D02*
X015682Y003269D01*
X015700Y003111D02*
X016000Y003111D01*
X016000Y002952D02*
X015677Y002952D01*
X015605Y002794D02*
X016000Y002794D01*
X016000Y002635D02*
X015426Y002635D01*
X015467Y002477D02*
X016000Y002477D01*
X016000Y002318D02*
X015562Y002318D01*
X015600Y002160D02*
X016000Y002160D01*
X016000Y002001D02*
X015598Y002001D01*
X015532Y001843D02*
X016000Y001843D01*
X016000Y001684D02*
X015396Y001684D01*
X015068Y001526D02*
X016000Y001526D01*
X016000Y001367D02*
X014909Y001367D01*
X014751Y001209D02*
X016000Y001209D01*
X016000Y001050D02*
X000360Y001050D01*
X000360Y000892D02*
X016000Y000892D01*
X016000Y000733D02*
X000360Y000733D01*
X006860Y004070D02*
X006860Y004070D01*
X007276Y004070D01*
X007276Y003889D01*
X007264Y003843D01*
X007240Y003802D01*
X007207Y003769D01*
X007185Y003756D01*
X007645Y003756D01*
X007645Y003791D01*
X007645Y003871D01*
X007633Y003876D01*
X007276Y004232D01*
X007276Y004070D01*
X006860Y004070D01*
X006857Y004408D02*
X006831Y004408D01*
X006839Y004426D01*
X006857Y004408D01*
X007276Y004220D02*
X007288Y004220D01*
X007276Y004062D02*
X007447Y004062D01*
X007605Y003903D02*
X007276Y003903D01*
X007257Y003111D02*
X007726Y003111D01*
X007645Y004696D02*
X007548Y004696D01*
X008623Y005013D02*
X010552Y005013D01*
X011728Y005013D02*
X014600Y005013D01*
X014663Y004854D02*
X011802Y004854D01*
X011882Y005805D02*
X012881Y005805D01*
X013040Y005964D02*
X011610Y005964D01*
X011008Y006598D02*
X010848Y006598D01*
X010848Y006756D02*
X011008Y006756D01*
X011008Y006915D02*
X010848Y006915D01*
X010848Y007073D02*
X011008Y007073D01*
X011783Y007390D02*
X007526Y007390D01*
X007483Y007549D02*
X012185Y007549D01*
X012343Y007707D02*
X007526Y007707D01*
X007526Y007866D02*
X012348Y007866D01*
X012360Y008024D02*
X007526Y008024D01*
X007526Y008183D02*
X012348Y008183D01*
X012346Y008341D02*
X007526Y008341D01*
X007526Y008500D02*
X012348Y008500D01*
X012348Y008658D02*
X005018Y008658D01*
X004954Y008500D02*
X005434Y008500D01*
X005236Y008341D02*
X004920Y008341D01*
X005117Y008252D02*
X005117Y008252D01*
X005047Y008183D02*
X004920Y008183D01*
X005004Y008139D02*
X005004Y008139D01*
X005380Y007837D02*
X005419Y007876D01*
X005434Y007876D01*
X005434Y007687D01*
X005525Y007596D01*
X005434Y007505D01*
X005434Y006955D01*
X005380Y006901D01*
X005380Y007837D01*
X005409Y007866D02*
X005434Y007866D01*
X005434Y007707D02*
X005380Y007707D01*
X005380Y007549D02*
X005477Y007549D01*
X005434Y007390D02*
X005380Y007390D01*
X005380Y007232D02*
X005434Y007232D01*
X005434Y007073D02*
X005380Y007073D01*
X005380Y006915D02*
X005393Y006915D01*
X004400Y006915D02*
X004322Y006915D01*
X004395Y006842D02*
X004106Y007131D01*
X004395Y007419D01*
X004395Y007842D01*
X004106Y008131D01*
X004395Y008419D01*
X004395Y008470D01*
X004400Y008465D01*
X004400Y006847D01*
X004395Y006842D01*
X004395Y006842D01*
X004400Y007073D02*
X004164Y007073D01*
X004207Y007232D02*
X004400Y007232D01*
X004400Y007390D02*
X004366Y007390D01*
X004395Y007549D02*
X004400Y007549D01*
X004395Y007707D02*
X004400Y007707D01*
X004400Y007866D02*
X004371Y007866D01*
X004400Y008024D02*
X004213Y008024D01*
X004158Y008183D02*
X004400Y008183D01*
X004400Y008341D02*
X004317Y008341D01*
X003664Y008131D02*
X003385Y008409D01*
X003106Y008131D01*
X003385Y007852D01*
X003664Y008131D01*
X003612Y008183D02*
X003158Y008183D01*
X003213Y008024D02*
X003557Y008024D01*
X003399Y007866D02*
X003371Y007866D01*
X003385Y007409D02*
X003664Y007131D01*
X003385Y006852D01*
X003106Y007131D01*
X003385Y007409D01*
X003366Y007390D02*
X003404Y007390D01*
X003563Y007232D02*
X003207Y007232D01*
X003164Y007073D02*
X003606Y007073D01*
X003448Y006915D02*
X003322Y006915D01*
X002606Y007073D02*
X001999Y007073D01*
X002072Y007043D02*
X001895Y007116D01*
X001105Y007116D01*
X000928Y007043D01*
X000793Y006908D01*
X000720Y006732D01*
X000720Y006541D01*
X000793Y006364D01*
X000928Y006229D01*
X001105Y006156D01*
X001895Y006156D01*
X002072Y006229D01*
X002207Y006364D01*
X002280Y006541D01*
X002280Y006732D01*
X002207Y006908D01*
X002072Y007043D01*
X002200Y006915D02*
X002448Y006915D01*
X002375Y006756D02*
X002270Y006756D01*
X002280Y006598D02*
X002375Y006598D01*
X002375Y006439D02*
X002238Y006439D01*
X002123Y006281D02*
X002514Y006281D01*
X002672Y006122D02*
X000360Y006122D01*
X000360Y006281D02*
X000877Y006281D01*
X000762Y006439D02*
X000360Y006439D01*
X000360Y006598D02*
X000720Y006598D01*
X000730Y006756D02*
X000360Y006756D01*
X000360Y006915D02*
X000800Y006915D01*
X001001Y007073D02*
X000360Y007073D01*
X000360Y007232D02*
X001026Y007232D01*
X000882Y007390D02*
X000360Y007390D01*
X000360Y007549D02*
X000820Y007549D01*
X000820Y007707D02*
X000360Y007707D01*
X000360Y007866D02*
X000876Y007866D01*
X001009Y008024D02*
X000360Y008024D01*
X000360Y008183D02*
X001041Y008183D01*
X001105Y008156D02*
X000928Y008229D01*
X000793Y008364D01*
X000720Y008541D01*
X000720Y008732D01*
X000793Y008908D01*
X000928Y009043D01*
X001105Y009116D01*
X001895Y009116D01*
X002072Y009043D01*
X002207Y008908D01*
X002280Y008732D01*
X002280Y008541D01*
X002207Y008364D01*
X002072Y008229D01*
X001895Y008156D01*
X001105Y008156D01*
X000816Y008341D02*
X000360Y008341D01*
X000360Y008500D02*
X000737Y008500D01*
X000720Y008658D02*
X000360Y008658D01*
X000360Y008817D02*
X000755Y008817D01*
X000860Y008975D02*
X000360Y008975D01*
X000360Y009134D02*
X002661Y009134D01*
X002508Y008975D02*
X002140Y008975D01*
X002245Y008817D02*
X002375Y008817D01*
X002375Y008658D02*
X002280Y008658D01*
X002263Y008500D02*
X002375Y008500D01*
X002453Y008341D02*
X002184Y008341D01*
X001959Y008183D02*
X002612Y008183D01*
X002557Y008024D02*
X002191Y008024D01*
X002324Y007866D02*
X002399Y007866D01*
X002404Y007390D02*
X002318Y007390D01*
X002174Y007232D02*
X002563Y007232D01*
X003317Y008341D02*
X003453Y008341D01*
X003385Y008852D02*
X003106Y009131D01*
X003385Y009409D01*
X003664Y009131D01*
X003385Y008852D01*
X003262Y008975D02*
X003508Y008975D01*
X003661Y009134D02*
X003109Y009134D01*
X003268Y009292D02*
X003502Y009292D01*
X003395Y009651D02*
X002905Y009651D01*
X002905Y009611D01*
X003865Y009611D01*
X003865Y009651D01*
X003395Y009651D01*
X003459Y009926D02*
X003311Y009926D01*
X003152Y010085D02*
X003618Y010085D01*
X003865Y010085D02*
X003905Y010085D01*
X003905Y010141D02*
X003905Y009651D01*
X004395Y009651D01*
X004395Y009842D01*
X004096Y010141D01*
X003905Y010141D01*
X003905Y009926D02*
X003865Y009926D01*
X003865Y009768D02*
X003905Y009768D01*
X004152Y010085D02*
X009262Y010085D01*
X009262Y010243D02*
X000360Y010243D01*
X000360Y010085D02*
X001127Y010085D01*
X001116Y010081D02*
X001048Y010047D01*
X000987Y010002D01*
X000934Y009949D01*
X000889Y009888D01*
X000855Y009820D01*
X000832Y009748D01*
X000820Y009674D01*
X000820Y009656D01*
X001580Y009656D01*
X001580Y009616D01*
X001620Y009616D01*
X001620Y009656D01*
X001580Y009656D01*
X001580Y010116D01*
X001262Y010116D01*
X001188Y010104D01*
X001116Y010081D01*
X000917Y009926D02*
X000360Y009926D01*
X000360Y009768D02*
X000838Y009768D01*
X000820Y009616D02*
X000820Y009598D01*
X000832Y009524D01*
X000855Y009452D01*
X000889Y009384D01*
X000934Y009323D01*
X000987Y009270D01*
X001048Y009225D01*
X001116Y009191D01*
X001188Y009168D01*
X001262Y009156D01*
X001580Y009156D01*
X001580Y009616D01*
X000820Y009616D01*
X000820Y009609D02*
X000360Y009609D01*
X000360Y009451D02*
X000856Y009451D01*
X000965Y009292D02*
X000360Y009292D01*
X001580Y009292D02*
X001620Y009292D01*
X001620Y009451D02*
X001580Y009451D01*
X001580Y009609D02*
X001620Y009609D01*
X001620Y009768D02*
X001580Y009768D01*
X001580Y009926D02*
X001620Y009926D01*
X001620Y010085D02*
X001580Y010085D01*
X002073Y010085D02*
X002618Y010085D01*
X002865Y010085D02*
X002905Y010085D01*
X002905Y009926D02*
X002865Y009926D01*
X002865Y009768D02*
X002905Y009768D01*
X002459Y009926D02*
X002283Y009926D01*
X002362Y009768D02*
X002375Y009768D01*
X002375Y009451D02*
X002344Y009451D01*
X002235Y009292D02*
X002502Y009292D01*
X004109Y009134D02*
X004367Y009134D01*
X004302Y008975D02*
X004262Y008975D01*
X004268Y009292D02*
X009360Y009292D01*
X009360Y009451D02*
X004395Y009451D01*
X004395Y009609D02*
X009360Y009609D01*
X009262Y009768D02*
X004395Y009768D01*
X004311Y009926D02*
X009262Y009926D01*
X009620Y010016D02*
X009620Y009216D01*
X009700Y009136D01*
X010420Y009136D01*
X010580Y008976D01*
X010632Y009292D02*
X011532Y009292D01*
X011651Y009451D02*
X009880Y009451D01*
X009880Y009609D02*
X011770Y009609D01*
X011885Y009768D02*
X009978Y009768D01*
X009978Y009926D02*
X016000Y009926D01*
X016000Y009768D02*
X013608Y009768D01*
X013057Y009292D02*
X013023Y009292D01*
X012348Y009292D02*
X012182Y009292D01*
X012063Y009134D02*
X012348Y009134D01*
X012348Y008975D02*
X011944Y008975D01*
X011828Y008817D02*
X012348Y008817D01*
X012686Y008420D02*
X012686Y007682D01*
X012060Y007056D01*
X013732Y007707D02*
X013823Y007707D01*
X013724Y007866D02*
X013982Y007866D01*
X014140Y008024D02*
X013704Y008024D01*
X013732Y008183D02*
X014160Y008183D01*
X014680Y008524D02*
X014680Y008591D01*
X014705Y008566D01*
X014722Y008566D01*
X014680Y008524D01*
X015687Y008658D02*
X016000Y008658D01*
X016000Y008817D02*
X015700Y008817D01*
X015700Y008975D02*
X016000Y008975D01*
X016000Y009134D02*
X015700Y009134D01*
X015700Y009292D02*
X016000Y009292D01*
X016000Y009451D02*
X015700Y009451D01*
X015652Y009609D02*
X016000Y009609D01*
X016000Y010085D02*
X009978Y010085D01*
X009978Y010243D02*
X016000Y010243D01*
X014652Y007350D02*
X014600Y007225D01*
X014600Y007007D01*
X014684Y006804D01*
X014838Y006650D01*
X014870Y006637D01*
X014738Y006582D01*
X014584Y006428D01*
X014500Y006226D01*
X014440Y006287D01*
X014440Y007138D01*
X014652Y007350D01*
X014603Y007232D02*
X014533Y007232D01*
X014600Y007073D02*
X014440Y007073D01*
X014440Y006915D02*
X014638Y006915D01*
X014732Y006756D02*
X014440Y006756D01*
X014440Y006598D02*
X014775Y006598D01*
X014595Y006439D02*
X014440Y006439D01*
X014446Y006281D02*
X014523Y006281D01*
X013822Y005964D02*
X013775Y005964D01*
X013822Y005805D02*
X013617Y005805D01*
X013458Y005647D02*
X013859Y005647D01*
X010291Y005805D02*
X009069Y005805D01*
X009114Y005964D02*
X010246Y005964D01*
X010246Y006122D02*
X009114Y006122D01*
X009114Y006281D02*
X010246Y006281D01*
X006586Y006598D02*
X006374Y006598D01*
X006424Y006439D02*
X006536Y006439D01*
X006536Y006281D02*
X006424Y006281D01*
X006424Y006122D02*
X006536Y006122D01*
X006536Y006756D02*
X006424Y006756D01*
X006424Y006915D02*
X006536Y006915D01*
X006536Y007073D02*
X006424Y007073D01*
X006424Y007232D02*
X006536Y007232D01*
X006536Y007390D02*
X006424Y007390D01*
X006380Y007549D02*
X006580Y007549D01*
X006536Y007707D02*
X006424Y007707D01*
X006424Y007866D02*
X006536Y007866D01*
X006536Y008024D02*
X006424Y008024D01*
X006424Y008183D02*
X006536Y008183D01*
X006536Y008341D02*
X006424Y008341D01*
X006424Y008500D02*
X006536Y008500D01*
X005018Y008975D02*
X009493Y008975D01*
X009373Y009134D02*
X004953Y009134D01*
X004302Y006281D02*
X004256Y006281D01*
D23*
X006500Y004976D02*
X006980Y005456D01*
X006980Y005985D01*
X007031Y006036D01*
X007031Y007076D01*
X007031Y008116D01*
X006500Y004976D02*
X006500Y004496D01*
X005600Y003616D02*
X004900Y004316D01*
X004900Y004736D01*
X004420Y004656D02*
X004420Y002816D01*
X004740Y002496D01*
X005480Y002496D01*
X005600Y002616D01*
X012686Y006626D02*
X012686Y007576D01*
X012700Y007670D01*
X012700Y008326D01*
X012686Y008420D01*
X012686Y008356D01*
D24*
X006500Y004496D02*
X006340Y004336D01*
X006340Y003696D01*
X006540Y003496D01*
X006994Y003496D01*
X005140Y005376D02*
X004420Y004656D01*
X005140Y005376D02*
X005140Y007936D01*
X005320Y008116D01*
X005929Y008116D01*
D25*
X014470Y001536D02*
X015050Y002116D01*
X014470Y001536D02*
X007060Y001536D01*
D26*
X004900Y004736D02*
X005380Y005216D01*
X005380Y006576D01*
X005880Y007076D01*
X005929Y007076D01*
M02*
